<?xml version="1.0" standalone="no"?>
<!DOCTYPE svg PUBLIC "-//W3C//DTD SVG 20010904//EN"
 "http://www.w3.org/TR/2001/REC-SVG-20010904/DTD/svg10.dtd">
<svg version="1.0" xmlns="http://www.w3.org/2000/svg"
 width="332.000000pt" height="235.000000pt" viewBox="0 0 332.000000 235.000000"
 preserveAspectRatio="xMidYMid meet">

<g transform="translate(0.000000,235.000000) scale(0.100000,-0.100000)"
fill="#000000" stroke="none">
<path d="M212 1603 l3 -168 69 -3 c49 -2 72 1 77 10 5 7 8 51 8 97 0 59 4 87
13 92 20 13 651 10 690 -3 62 -20 68 -37 68 -195 0 -141 0 -142 -26 -162 -15
-12 -41 -21 -59 -21 -45 0 -57 -19 -53 -82 3 -48 5 -53 28 -56 50 -5 71 -13
90 -32 18 -18 20 -34 20 -181 0 -91 -4 -169 -10 -180 -18 -33 -64 -49 -144
-49 l-75 0 -3 43 -3 42 -68 5 c-38 3 -75 1 -83 -3 -8 -5 -14 -24 -14 -48 l0
-39 -182 2 -183 3 -3 212 -2 213 22 5 c13 3 97 4 188 3 l165 -3 3 -43 3 -43
77 3 77 3 3 103 3 102 -27 10 c-16 6 -150 9 -348 8 l-321 -3 -5 -348 c-3 -191
-4 -352 -2 -357 2 -6 164 -10 452 -10 l448 0 62 33 c41 21 73 47 94 75 l31 44
3 192 c3 187 3 192 -20 226 -13 19 -40 46 -60 59 l-37 24 43 27 c66 42 76 74
76 235 0 156 -13 199 -76 255 -76 66 -63 65 -562 68 l-452 3 2 -168z"/>
<path d="M1570 1283 c-53 -10 -60 -27 -60 -148 0 -149 6 -158 118 -163 101 -5
137 11 145 64 8 47 3 54 -34 54 -22 0 -29 -5 -29 -19 0 -25 -14 -29 -80 -22
l-55 6 -3 70 c-2 57 0 72 14 82 28 20 91 16 114 -7 11 -11 31 -20 45 -20 22 0
25 4 25 33 0 17 -4 38 -8 45 -17 26 -114 39 -192 25z"/>
<path d="M1824 1277 c-2 -7 -3 -78 -2 -157 l3 -145 25 0 c23 0 25 4 30 60 l5
60 75 0 c53 0 75 -4 76 -12 1 -7 2 -35 3 -63 1 -46 3 -50 26 -50 l25 0 0 160
0 160 -24 0 c-25 0 -36 -28 -36 -91 l0 -29 -75 0 -75 0 0 60 c0 58 -1 60 -25
60 -14 0 -28 -6 -31 -13z"/>
<path d="M2263 1273 c-3 -10 -25 -67 -48 -128 -23 -60 -45 -122 -49 -137 -6
-25 -4 -28 20 -28 19 0 28 7 37 30 11 30 12 30 88 30 77 0 77 0 88 -30 7 -23
16 -30 35 -30 15 0 26 6 25 13 0 6 -23 75 -52 152 l-52 140 -43 3 c-33 3 -44
-1 -49 -15z m76 -104 c13 -33 22 -62 20 -64 -9 -8 -94 -9 -94 0 0 17 39 125
45 125 3 0 16 -27 29 -61z"/>
<path d="M2527 1284 c-4 -4 -7 -74 -7 -156 l0 -148 25 0 26 0 -3 152 c-3 129
-5 153 -18 156 -9 1 -19 0 -23 -4z"/>
<path d="M2640 1136 l0 -156 25 0 25 0 0 111 c0 71 4 109 10 107 6 -2 37 -50
69 -108 l58 -105 46 -3 47 -3 0 155 0 156 -25 0 -25 0 0 -117 c0 -90 -3 -114
-12 -105 -6 6 -37 58 -68 114 l-57 103 -46 3 -47 3 0 -155z"/>
<path d="M1509 836 c-2 -2 -3 -72 -1 -155 l3 -151 114 0 c90 0 117 3 129 16
22 21 21 102 -1 126 -13 14 -14 21 -5 30 7 7 12 33 12 59 0 72 -12 79 -139 79
-59 0 -110 -2 -112 -4z m189 -90 c5 -26 -15 -36 -75 -36 -52 0 -53 0 -53 30
l0 31 62 -3 c52 -2 63 -6 66 -22z m-3 -99 c11 -9 16 -20 12 -31 -5 -12 -20
-16 -72 -16 -64 0 -65 0 -65 28 0 26 3 27 53 30 33 1 60 -3 72 -11z"/>
<path d="M1817 833 c-4 -3 -7 -73 -7 -155 l0 -148 30 0 c27 0 30 3 30 34 0 30
4 34 31 40 73 14 109 -2 109 -50 0 -20 5 -24 30 -24 28 0 30 2 30 38 0 21 -6
47 -14 57 -12 16 -12 22 1 42 11 17 14 40 11 80 -7 82 -24 93 -147 93 -54 0
-101 -3 -104 -7z m188 -93 c3 -11 3 -29 0 -40 -5 -17 -15 -20 -71 -20 l-64 0
0 40 0 40 64 0 c56 0 66 -3 71 -20z"/>
<path d="M2130 685 l0 -155 30 0 30 0 0 155 0 155 -30 0 -30 0 0 -155z"/>
<path d="M2250 685 l0 -155 113 0 c152 0 152 0 152 157 0 151 -2 153 -156 153
l-109 0 0 -155z m194 82 c14 -10 16 -25 14 -87 l-3 -75 -77 -3 -78 -3 0 91 0
90 63 0 c35 0 71 -6 81 -13z"/>
<path d="M2622 833 c-27 -11 -42 -62 -42 -142 0 -141 17 -160 141 -161 109 0
119 9 119 103 l0 67 -66 0 c-62 0 -65 -1 -62 -22 2 -19 10 -24 41 -26 32 -3
37 -7 37 -28 0 -23 -2 -24 -70 -24 -81 0 -90 9 -90 87 0 71 15 86 84 87 44 1
61 -3 70 -16 7 -10 23 -18 35 -18 17 0 21 6 21 33 0 55 -23 67 -121 66 -46 0
-90 -3 -97 -6z"/>
<path d="M2899 818 c0 -13 -1 -81 -2 -153 l0 -130 111 -3 112 -3 0 31 0 30
-85 0 -85 0 0 35 0 35 80 0 c79 0 80 0 80 25 0 25 -1 25 -80 25 l-80 0 0 35 0
35 85 0 85 0 0 30 0 30 -110 0 c-107 0 -110 -1 -111 -22z"/>
</g>
</svg>
