<?xml version="1.0" standalone="no"?>
<!DOCTYPE svg PUBLIC "-//W3C//DTD SVG 20010904//EN"
 "http://www.w3.org/TR/2001/REC-SVG-20010904/DTD/svg10.dtd">
<svg version="1.0" xmlns="http://www.w3.org/2000/svg"
 width="530.000000pt" height="360.000000pt" viewBox="0 0 530.000000 360.000000"
 preserveAspectRatio="xMidYMid meet">
<metadata>
Created by potrace 1.16, written by Peter Selinger 2001-2019
</metadata>
<g transform="translate(0.000000,360.000000) scale(0.100000,-0.100000)"
fill="#000000" stroke="none">
<path d="M2360 3115 c-62 -11 -111 -24 -190 -46 -118 -35 -263 -106 -395 -194
-53 -36 -101 -65 -106 -65 -5 0 -14 11 -20 24 l-11 24 -42 -24 c-60 -35 -113
-32 -205 12 -41 21 -95 39 -118 42 -38 4 -46 1 -70 -27 -16 -18 -37 -31 -51
-31 -55 0 -112 -52 -112 -102 0 -34 16 -44 39 -24 10 9 35 16 59 16 56 0 82
-36 82 -112 -1 -72 -46 -135 -124 -172 -66 -31 -113 -33 -166 -6 -79 40 -95
109 -35 157 19 15 35 31 35 34 0 10 -53 18 -84 12 -15 -3 -43 -21 -61 -39 -59
-59 -59 -161 1 -236 54 -68 44 -79 -46 -52 -24 7 -25 7 -7 -13 10 -11 33 -29
52 -39 44 -23 40 -38 -11 -42 -32 -2 -48 3 -79 28 -21 16 -39 29 -41 28 -5 -6
-52 -166 -64 -218 -12 -54 -9 -312 6 -631 6 -114 5 -117 -17 -133 -13 -9 -36
-16 -51 -16 -55 0 -20 -62 45 -79 53 -14 83 -1 91 39 3 18 6 93 6 166 0 74 4
134 8 134 14 0 42 -35 42 -53 0 -14 19 -120 36 -205 6 -30 39 -62 65 -62 11 0
55 -14 97 -32 93 -38 152 -91 152 -136 0 -63 -74 -103 -116 -63 -12 11 -24 25
-26 32 -6 19 -28 0 -28 -24 0 -12 8 -32 18 -43 59 -73 207 -52 253 35 24 45
32 52 48 42 25 -16 14 -71 -24 -127 -43 -62 -41 -79 13 -131 107 -102 238
-173 321 -173 43 0 53 4 85 36 l36 36 28 -19 c16 -10 68 -44 115 -76 142 -95
256 -148 412 -192 33 -9 74 -21 90 -26 50 -16 283 -30 395 -24 58 4 141 13
185 21 88 17 277 77 312 100 12 8 27 14 32 14 17 0 156 82 238 141 45 33 85
59 90 59 5 0 24 -16 41 -36 31 -35 34 -36 90 -32 67 5 134 34 217 93 71 51
145 123 145 143 0 7 -14 34 -31 58 -38 56 -52 100 -38 125 15 28 26 23 49 -21
55 -108 219 -125 271 -29 11 21 4 59 -11 59 -5 0 -11 -9 -15 -19 -8 -27 -55
-44 -88 -32 -36 14 -60 53 -51 85 14 56 128 130 241 156 41 9 53 17 62 38 11
29 36 134 46 195 8 51 26 88 39 84 7 -2 12 -54 13 -143 2 -76 5 -149 8 -162
13 -53 122 -46 151 10 17 33 10 51 -16 43 -26 -8 -67 14 -72 39 -2 11 -1 71 3
131 18 253 22 522 10 586 -12 63 -39 157 -60 212 l-11 28 -37 -30 c-29 -24
-47 -31 -80 -31 -45 0 -61 23 -25 34 21 7 85 67 78 73 -3 3 -15 -2 -28 -11
-24 -17 -63 -21 -72 -8 -2 4 11 27 29 51 59 75 69 152 27 223 -21 36 -84 68
-125 62 -44 -5 -56 -21 -25 -33 53 -20 74 -84 42 -129 -22 -32 -87 -62 -134
-62 -79 0 -172 66 -204 144 -22 53 -20 87 7 127 18 27 30 35 61 37 23 2 47 -3
63 -13 21 -14 27 -15 34 -4 29 46 -20 114 -91 125 -29 5 -51 16 -68 35 -35 40
-76 38 -177 -11 -99 -48 -149 -52 -211 -16 l-42 24 -19 -26 -19 -25 -89 60
c-200 135 -375 207 -605 249 -92 17 -379 16 -470 -1z m490 -55 c173 -32 370
-113 525 -216 156 -104 328 -284 410 -429 81 -144 114 -221 149 -350 91 -337
42 -695 -137 -1008 -141 -246 -424 -491 -672 -582 -27 -10 -54 -21 -60 -25
-21 -14 -138 -42 -269 -65 -195 -35 -506 -1 -691 75 -106 44 -288 142 -315
170 -3 3 -23 19 -45 35 -93 69 -233 216 -280 294 -5 9 -20 30 -31 46 -68 95
-139 260 -180 420 -26 101 -28 125 -28 300 0 149 4 205 17 260 10 39 23 90 29
115 19 76 93 235 153 332 224 360 604 597 1030 642 70 7 328 -2 395 -14z
m-1300 -358 c0 -10 -18 -38 -41 -62 -22 -25 -48 -58 -57 -73 -11 -18 -24 -27
-37 -25 -16 2 -21 14 -27 62 -4 33 -12 64 -18 70 -5 5 -10 18 -10 28 0 16 10
18 95 18 85 0 95 -2 95 -18z m2285 8 c3 -5 -1 -23 -10 -39 -8 -17 -15 -46 -15
-65 0 -80 -29 -87 -80 -18 -19 26 -44 56 -56 67 -23 22 -36 50 -27 59 10 10
181 7 188 -4z m-2708 -356 c15 -10 41 -31 56 -47 26 -27 30 -29 53 -17 40 22
45 2 20 -75 -42 -128 -54 -170 -60 -210 -12 -80 -25 -105 -54 -105 -38 -1 -58
-19 -66 -62 -6 -32 -11 -38 -31 -38 -56 0 -60 105 -6 168 98 115 123 181 95
251 -19 48 -85 88 -128 77 -24 -6 -27 -11 -24 -39 2 -26 -1 -32 -16 -32 -10 0
-28 12 -40 28 -20 27 -20 28 -3 60 27 51 63 69 124 63 28 -2 64 -12 80 -22z
m3086 17 c62 -24 88 -99 47 -136 -28 -25 -51 -13 -44 24 5 24 2 30 -15 36 -62
19 -136 -37 -147 -111 -5 -36 -1 -54 20 -98 15 -30 39 -67 55 -83 63 -62 83
-120 61 -177 -17 -47 -70 -30 -70 22 0 25 -31 52 -61 52 -34 0 -45 17 -54 85
-7 49 -30 141 -45 180 -36 88 -43 116 -32 127 9 9 15 9 24 0 19 -19 32 -14 77
28 56 53 126 73 184 51z m-3311 -580 c27 -49 61 -64 146 -66 114 -3 118 -7
125 -112 6 -96 19 -163 48 -263 10 -36 19 -69 19 -73 0 -12 -50 -8 -73 7 -19
12 -30 12 -72 0 -68 -18 -120 -17 -139 2 -22 21 -13 31 36 39 82 14 118 58
118 143 0 91 -60 146 -137 126 -29 -7 -38 -15 -44 -38 -11 -42 -1 -50 24 -20
19 21 26 24 47 16 45 -17 56 -38 38 -76 -19 -38 -65 -61 -104 -52 -39 10 -81
57 -94 107 -13 46 -10 255 4 277 13 21 40 13 58 -17z m3449 12 c10 -12 14 -50
14 -147 -1 -112 -4 -135 -20 -161 -53 -81 -118 -96 -171 -38 -13 14 -24 33
-24 42 1 54 85 76 108 29 10 -22 11 -21 11 9 1 42 -22 63 -67 63 -72 0 -112
-53 -112 -146 0 -52 3 -60 34 -89 24 -23 49 -35 80 -39 46 -7 57 -21 34 -44
-16 -16 -69 -15 -134 4 -51 15 -55 14 -81 -3 -27 -19 -63 -20 -63 -3 0 4 8 36
19 71 22 78 38 169 46 272 8 93 14 98 127 103 84 3 118 17 139 56 21 40 40 46
60 21z m-2975 -821 c6 -4 30 -34 54 -67 24 -33 79 -100 122 -148 67 -75 77
-91 68 -107 -13 -25 -42 -40 -75 -40 -20 0 -44 17 -91 65 -78 79 -124 165
-124 233 0 58 18 83 46 64z m2485 -19 c26 -67 -23 -183 -117 -280 -67 -68 -90
-76 -144 -48 -44 23 -37 48 31 118 34 34 86 96 116 137 81 109 96 119 114 73z"/>
<path d="M2445 2753 c-324 -70 -523 -188 -689 -408 -144 -191 -206 -376 -206
-618 0 -140 12 -215 53 -337 153 -454 621 -745 1110 -691 122 13 138 17 272
67 265 99 484 309 587 564 37 93 38 96 59 194 48 225 2 519 -108 698 -13 21
-23 40 -23 43 0 3 -19 32 -42 63 -56 78 -181 199 -251 245 -194 128 -389 188
-610 186 -73 -1 -141 -3 -152 -6z m253 -48 c143 -19 188 -30 285 -71 114 -48
177 -90 177 -120 0 -34 -39 -48 -92 -34 -47 13 -91 37 -161 88 -79 57 -123 72
-245 85 l-42 5 36 -29 c20 -16 42 -29 48 -29 12 0 156 -70 156 -76 0 -2 -9 -8
-21 -14 -16 -9 -35 -7 -91 11 -67 22 -71 23 -100 6 -41 -24 -59 -22 -106 13
-48 34 -52 47 -18 56 13 3 34 17 47 30 l22 24 -24 0 c-39 0 -187 -28 -209 -40
-11 -6 -20 -21 -20 -33 0 -28 32 -117 42 -117 4 0 14 14 23 30 20 38 52 39
134 4 71 -31 76 -47 33 -109 -33 -48 -67 -67 -104 -59 -38 8 -37 -19 3 -71 53
-70 132 -95 180 -56 l23 18 -30 -4 c-61 -9 -89 78 -34 104 54 25 76 26 101 1
13 -13 30 -33 37 -45 43 -79 -38 -183 -143 -183 -39 0 -73 10 -147 44 -21 9
-66 22 -100 29 -49 9 -65 17 -74 35 -7 13 -26 32 -43 43 -44 26 -46 41 -17 88
46 72 31 164 -31 198 -39 21 -50 13 -34 -25 14 -34 6 -74 -18 -97 -10 -8 -44
-25 -76 -36 -91 -32 -144 -58 -232 -116 -44 -29 -84 -53 -87 -53 -33 0 56 134
151 225 64 63 184 149 253 182 109 53 208 80 370 102 36 5 65 9 65 10 0 0 51
-6 113 -14z m569 -247 c69 -63 98 -96 149 -165 64 -87 52 -101 -51 -58 -87 36
-170 34 -252 -4 -34 -16 -67 -39 -73 -51 -7 -14 -19 -20 -33 -18 -20 3 -22 8
-19 50 4 52 -1 58 -83 111 -40 25 -52 40 -59 70 -8 31 -6 42 11 65 24 33 83
44 83 16 0 -9 -7 -22 -17 -29 -40 -29 28 -75 113 -75 57 0 94 25 130 86 14 24
32 44 40 44 8 0 35 -19 61 -42z m-1040 -261 c74 -26 124 -80 149 -162 15 -46
16 -60 5 -97 -25 -83 -95 -126 -157 -96 -31 14 -55 53 -47 74 7 19 20 17 43
-6 42 -42 81 -15 87 61 4 48 1 59 -25 95 -43 59 -89 78 -176 72 -126 -9 -213
-81 -260 -217 -44 -128 -31 -272 45 -482 17 -45 19 -61 10 -78 -28 -51 -84
-47 -96 8 -3 16 -15 37 -25 46 -17 16 -25 16 -65 5 -61 -17 -68 -9 -95 102
-22 93 -28 217 -15 331 7 61 9 67 31 67 12 0 26 -4 29 -10 11 -18 25 -10 25
15 0 29 29 62 63 70 12 3 28 19 35 35 20 44 97 115 155 143 106 50 189 57 284
24z m1073 -101 c64 -32 90 -75 90 -148 0 -126 -74 -201 -240 -242 -138 -34
-173 -49 -226 -101 -28 -27 -66 -78 -84 -113 -44 -84 -97 -142 -160 -176 -46
-25 -63 -28 -139 -29 -78 0 -93 3 -140 28 -29 16 -62 40 -72 54 -27 33 -10 47
32 28 73 -34 209 -51 223 -28 3 4 18 11 33 14 33 7 96 65 118 109 21 42 19 76
-8 122 -30 53 -67 78 -124 83 -39 4 -53 1 -75 -17 -35 -27 -36 -43 -2 -30 40
15 53 12 85 -19 34 -35 37 -66 9 -121 -26 -52 -70 -74 -140 -73 -72 1 -120 23
-164 75 -43 50 -50 72 -44 139 9 95 97 164 220 174 116 10 231 40 311 82 17 8
57 40 89 70 31 30 61 52 66 49 5 -3 12 -21 15 -39 15 -96 73 -157 155 -164 65
-6 114 21 126 69 5 20 5 44 1 54 -8 18 -8 18 -13 -1 -11 -50 -61 -69 -115 -44
-32 15 -49 46 -49 90 1 48 25 83 77 108 52 26 90 25 145 -3z m285 -203 c12
-29 17 -213 8 -273 -11 -71 -34 -77 -94 -26 -23 19 -54 38 -70 41 -16 4 -32
11 -35 16 -6 11 23 49 38 49 13 0 56 50 72 85 8 17 23 51 35 78 21 50 34 58
46 30z m-442 -348 c-2 -30 -53 -85 -79 -85 -18 0 -77 -31 -101 -53 -38 -34
-43 -127 -7 -127 8 0 19 12 25 28 l11 27 18 -22 c21 -27 16 -58 -13 -78 -57
-40 -137 17 -137 98 0 107 144 251 245 245 38 -3 40 -5 38 -33z m308 -69 c10
-20 8 -30 -10 -54 -30 -43 -26 -66 16 -101 l38 -31 -28 -53 c-15 -28 -55 -86
-90 -127 -63 -75 -191 -190 -211 -190 -23 0 -40 20 -41 49 -1 27 -15 59 -15
35 0 -6 -9 -20 -20 -32 -41 -44 -101 -16 -115 54 -10 53 16 86 102 130 86 43
131 90 188 193 68 126 159 187 186 127z m-1375 -147 c7 -30 18 -80 24 -112 14
-72 44 -102 157 -158 106 -53 110 -58 87 -111 -10 -24 -20 -68 -23 -98 -8 -72
-20 -73 -141 -16 -108 50 -209 121 -293 203 -48 47 -57 62 -55 86 3 26 11 32
66 54 64 26 112 75 112 115 0 9 4 27 9 40 5 13 12 31 15 41 10 33 30 12 42
-44z m465 -194 c32 -17 69 -69 69 -97 0 -29 30 -50 62 -44 36 7 78 -30 78 -68
0 -64 -39 -102 -114 -112 -130 -18 -197 57 -131 146 30 41 31 55 5 98 -17 28
-25 32 -64 32 -54 0 -68 16 -36 42 28 22 90 24 131 3z"/>
</g>
</svg>
