<?xml version="1.0" standalone="no"?>
<!DOCTYPE svg PUBLIC "-//W3C//DTD SVG 20010904//EN"
 "http://www.w3.org/TR/2001/REC-SVG-20010904/DTD/svg10.dtd">
<svg version="1.0" xmlns="http://www.w3.org/2000/svg"
 width="777.000000pt" height="264.000000pt" viewBox="0 0 777.000000 264.000000"
 preserveAspectRatio="xMidYMid meet">

<g transform="translate(0.000000,264.000000) scale(0.100000,-0.100000)"
fill="#000000" stroke="none">
<path d="M1020 2400 c-14 -4 -44 -8 -68 -9 -24 -1 -52 -6 -63 -12 -11 -5 -38
-13 -61 -17 -45 -8 -57 -22 -35 -44 8 -8 18 -24 21 -36 4 -12 11 -22 16 -22 4
0 11 -11 14 -24 8 -32 32 -39 61 -20 24 16 24 16 5 33 -33 28 -30 83 5 99 35
16 88 16 82 0 -2 -7 -13 -12 -24 -10 -24 3 -39 -34 -21 -55 6 -7 8 -22 5 -32
-5 -19 2 -20 204 -19 115 0 209 4 209 9 0 5 -11 9 -24 9 -43 0 -49 57 -10 93
17 16 33 22 50 19 28 -5 43 -22 19 -22 -21 0 -40 -49 -24 -64 8 -8 13 -8 16 1
9 26 51 65 57 54 4 -6 1 -13 -6 -16 -22 -9 -17 -94 5 -107 15 -8 22 -5 34 12
29 41 64 112 60 123 -4 12 -80 35 -162 48 -82 14 -334 20 -365 9z m80 -49 c0
-11 7 -7 23 13 33 41 54 30 59 -29 2 -25 -2 -56 -9 -68 -11 -22 -12 -21 -26
12 l-15 35 -16 -33 c-25 -48 -49 -38 -58 23 -8 58 5 94 28 75 8 -6 14 -19 14
-28z m188 16 c14 -16 5 -75 -13 -101 -25 -34 -45 -12 -45 47 0 30 3 57 7 60
11 11 40 8 51 -6z m-258 -92 c0 -24 -30 -42 -50 -30 -14 8 -13 48 2 63 17 17
48 -4 48 -33z"/>
<path d="M716 2284 c-11 -8 -27 -14 -35 -14 -9 0 -27 -9 -41 -20 l-25 -20 57
0 c99 0 109 -17 57 -95 -17 -25 -29 -48 -27 -50 2 -2 21 1 43 6 22 6 63 14 92
18 64 9 73 16 36 29 -35 12 -73 48 -73 67 0 8 -4 15 -10 15 -5 0 -12 11 -16
24 -3 14 -13 31 -22 40 -15 13 -20 13 -36 0z"/>
<path d="M1572 2260 c-12 -16 -22 -35 -22 -42 -1 -22 -37 -58 -77 -78 l-38
-18 40 -6 c22 -4 59 -11 83 -16 82 -19 90 -10 42 50 -16 21 -30 43 -30 49 0
19 37 31 97 32 57 0 58 0 34 17 -22 15 -86 41 -102 42 -3 0 -15 -13 -27 -30z"/>
<path d="M586 2123 c-15 -15 -23 -29 -17 -31 14 -5 60 30 61 46 0 19 -15 14
-44 -15z"/>
<path d="M1720 2137 c0 -14 31 -47 43 -47 17 0 5 29 -18 44 -20 13 -25 14 -25
3z"/>
<path d="M468 2120 c-2 -48 3 -85 18 -117 12 -27 21 -33 47 -33 37 0 81 26 71
42 -4 6 -24 7 -48 4 -55 -8 -65 1 -63 56 2 50 -22 95 -25 48z"/>
<path d="M1845 2128 c-2 -7 -6 -35 -7 -63 l-3 -50 -52 3 c-29 2 -53 -1 -53 -6
0 -21 39 -42 78 -42 35 0 42 3 42 19 0 11 7 26 15 35 21 21 21 116 0 116 -9 0
-18 -6 -20 -12z"/>
<path d="M1120 2091 c0 -5 -15 -13 -32 -16 -18 -4 -37 -11 -43 -15 -5 -4 -25
-11 -42 -15 -18 -3 -33 -11 -33 -16 0 -5 -11 -9 -24 -9 -14 0 -31 -7 -40 -15
-8 -8 -25 -15 -38 -15 -13 0 -32 -7 -42 -15 -12 -9 -42 -15 -76 -15 -61 0
-146 -32 -116 -43 8 -3 31 0 50 8 20 8 60 15 91 15 30 0 55 4 55 10 0 5 12 12
28 16 15 3 41 12 57 19 79 36 104 45 119 45 9 0 16 5 16 10 0 6 10 10 23 10
13 0 32 7 43 15 25 19 74 19 110 0 16 -8 37 -15 47 -15 9 0 17 -4 17 -10 0 -5
9 -10 21 -10 11 0 33 -6 47 -13 15 -8 42 -21 60 -30 19 -9 44 -17 57 -17 12 0
28 -7 35 -15 8 -9 30 -15 60 -15 26 0 67 -7 90 -15 23 -8 44 -15 46 -15 2 0 4
7 4 15 0 8 -9 15 -19 15 -11 0 -23 5 -26 10 -3 6 -34 10 -69 10 -39 0 -69 5
-82 15 -10 8 -28 15 -39 15 -11 0 -29 7 -39 15 -11 8 -30 15 -43 15 -13 0 -23
5 -23 10 0 6 -8 10 -17 10 -10 0 -30 6 -45 14 -15 8 -40 17 -57 21 -17 4 -31
11 -31 16 0 5 -22 9 -50 9 -27 0 -50 -4 -50 -9z"/>
<path d="M2967 2054 c-23 -12 -26 -18 -17 -29 8 -10 11 -69 8 -195 l-3 -181
34 3 34 3 -2 195 c0 107 -1 201 -1 208 0 16 -19 15 -53 -4z"/>
<path d="M3520 2057 c-35 -15 -34 -15 -21 -31 9 -11 12 -64 9 -196 -3 -179 -3
-181 19 -186 29 -8 65 17 52 36 -13 21 -11 194 2 207 8 8 8 13 0 17 -6 4 -11
40 -11 87 0 84 -3 88 -50 66z"/>
<path d="M4220 2056 l-25 -14 3 -197 3 -196 36 3 35 3 -1 195 c0 107 -1 201
-1 208 0 16 -18 15 -50 -2z"/>
<path d="M1155 2040 c-4 -6 3 -10 14 -10 25 0 27 6 6 13 -8 4 -17 2 -20 -3z"/>
<path d="M2668 2033 c6 -2 18 -2 25 0 6 3 1 5 -13 5 -14 0 -19 -2 -12 -5z"/>
<path d="M2780 2021 c0 -4 9 -25 19 -47 15 -30 21 -35 26 -22 11 29 1 60 -22
69 -13 5 -23 5 -23 0z"/>
<path d="M1085 2010 c-4 -6 7 -10 24 -10 17 0 31 5 31 10 0 6 -11 10 -24 10
-14 0 -28 -4 -31 -10z"/>
<path d="M1210 2010 c0 -5 12 -10 26 -10 14 0 23 4 19 10 -3 6 -15 10 -26 10
-10 0 -19 -4 -19 -10z"/>
<path d="M2566 1974 c-49 -48 -52 -60 -46 -178 3 -65 46 -117 123 -149 43 -19
47 -13 12 19 -13 12 -34 41 -46 64 -18 35 -21 53 -17 125 4 77 7 88 37 125
l32 40 -25 0 c-16 0 -41 -16 -70 -46z"/>
<path d="M4547 1838 l2 -183 43 0 c34 0 42 3 38 15 -11 37 -11 142 0 155 8 10
8 19 1 34 -14 25 -14 128 -1 136 23 14 7 25 -37 25 l-48 0 2 -182z"/>
<path d="M4797 1956 c3 -35 1 -78 -5 -95 -8 -21 -8 -33 0 -37 6 -4 9 -38 6
-91 l-4 -84 38 3 39 3 0 180 0 180 -39 3 -40 3 5 -65z"/>
<path d="M6358 2002 c-10 -2 -18 -12 -18 -23 0 -10 -9 -28 -19 -38 -11 -11
-17 -22 -14 -25 3 -3 5 -53 4 -111 -1 -58 3 -114 9 -125 12 -23 60 -50 90 -50
27 0 25 15 -5 42 -23 20 -25 28 -25 115 0 52 5 103 11 114 7 14 7 24 1 32 -6
7 -12 26 -14 42 -2 23 -7 30 -20 27z"/>
<path d="M360 1972 c0 -9 14 -46 31 -81 29 -58 33 -62 57 -56 36 9 84 37 90
53 5 15 -54 17 -63 2 -10 -16 -44 -11 -53 8 -5 9 -12 34 -16 55 -5 28 -12 37
-26 37 -12 0 -20 -7 -20 -18z"/>
<path d="M1010 1980 c0 -5 11 -10 24 -10 14 0 28 5 31 10 4 6 -7 10 -24 10
-17 0 -31 -4 -31 -10z"/>
<path d="M1275 1980 c3 -5 17 -10 31 -10 13 0 24 5 24 10 0 6 -14 10 -31 10
-17 0 -28 -4 -24 -10z"/>
<path d="M1936 1968 c-9 -12 -16 -37 -16 -55 0 -40 -9 -46 -44 -27 -37 18 -66
18 -66 -1 0 -17 83 -57 103 -49 21 8 57 82 57 118 0 41 -12 46 -34 14z"/>
<path d="M1140 1963 c-8 -3 -29 -11 -47 -19 -17 -8 -38 -14 -46 -14 -9 0 -18
-4 -21 -9 -3 -5 -22 -12 -41 -15 -19 -4 -35 -11 -35 -16 0 -6 -10 -10 -22 -10
-13 0 -30 -5 -38 -11 -11 -7 -3 -9 30 -4 160 20 229 24 338 19 67 -4 122 -10
122 -15 0 -5 19 -9 43 -9 31 0 38 3 27 10 -8 5 -25 10 -37 10 -13 0 -23 4 -23
10 0 5 -16 12 -35 16 -19 3 -38 10 -41 15 -3 5 -13 9 -22 9 -9 0 -29 6 -43 14
-31 16 -88 26 -109 19z"/>
<path d="M930 1950 c0 -5 11 -10 24 -10 14 0 28 5 31 10 4 6 -7 10 -24 10 -17
0 -31 -4 -31 -10z"/>
<path d="M1355 1950 c3 -5 15 -10 25 -10 10 0 22 5 25 10 4 6 -7 10 -25 10
-18 0 -29 -4 -25 -10z"/>
<path d="M860 1920 c0 -5 11 -10 24 -10 14 0 28 5 31 10 4 6 -7 10 -24 10 -17
0 -31 -4 -31 -10z"/>
<path d="M1430 1920 c20 -13 50 -13 50 0 0 6 -15 10 -32 10 -25 0 -29 -3 -18
-10z"/>
<path d="M3669 1890 c41 -40 47 -58 42 -135 -3 -43 -17 -68 -51 -87 -61 -35
-17 -53 50 -20 20 10 44 34 57 57 57 101 -1 225 -104 225 l-35 0 41 -40z"/>
<path d="M3996 1903 c10 -20 14 -57 13 -126 -2 -111 10 -137 65 -137 23 0 27
3 18 12 -8 8 -12 47 -12 108 0 52 -3 104 -6 116 -6 22 -52 54 -77 54 -14 0
-14 -3 -1 -27z"/>
<path d="M5035 1911 c-40 -22 -62 -50 -70 -90 -14 -76 18 -148 78 -170 32 -12
33 -9 11 25 -24 36 -24 183 0 219 22 33 19 36 -19 16z"/>
<path d="M5140 1915 c0 -7 7 -18 15 -25 23 -19 21 -186 -2 -212 -20 -22 -13
-31 19 -23 63 16 94 133 54 207 -19 35 -86 76 -86 53z"/>
<path d="M5480 1924 c0 -4 12 -18 26 -31 24 -22 26 -30 26 -116 0 -51 -1 -99
-3 -107 -3 -11 7 -16 37 -18 l41 -3 -4 73 c-8 153 -13 175 -38 192 -24 16 -85
22 -85 10z"/>
<path d="M5864 1915 c15 -12 18 -23 14 -65 l-5 -50 38 0 c32 0 39 4 39 20 0
34 -22 69 -57 90 -39 23 -57 26 -29 5z"/>
<path d="M3158 1878 c-33 -36 -38 -47 -38 -90 0 -63 47 -138 87 -138 17 0 17
10 -3 50 -19 37 -15 171 5 178 15 5 14 42 -1 42 -6 0 -28 -19 -50 -42z"/>
<path d="M3324 1885 c17 -97 18 -146 2 -185 -18 -44 -11 -54 25 -37 34 17 54
63 54 124 0 55 -19 92 -64 122 l-24 15 7 -39z"/>
<path d="M5345 1906 c-19 -8 -25 -15 -17 -20 8 -5 12 -43 12 -122 l0 -115 37
3 37 3 -3 95 c-1 52 2 106 7 120 7 18 6 28 -4 38 -16 15 -31 15 -69 -2z"/>
<path d="M5744 1897 c-66 -56 -79 -134 -32 -200 32 -45 145 -86 162 -58 4 5
-14 17 -38 26 -27 11 -48 27 -57 43 -16 33 -21 152 -7 169 5 7 8 20 6 29 -3
15 -7 13 -34 -9z"/>
<path d="M6170 1907 c1 -14 24 -47 34 -47 3 0 6 11 6 24 0 15 -7 26 -20 29
-12 3 -20 0 -20 -6z"/>
<path d="M765 1901 l-30 -8 26 -7 c33 -9 80 -4 80 9 0 13 -37 15 -76 6z"/>
<path d="M1497 1904 c-13 -13 5 -24 41 -24 55 0 72 16 25 23 -48 8 -58 9 -66
1z"/>
<path d="M3878 1899 c-25 -14 -24 -59 1 -59 20 0 31 18 31 51 0 21 -7 23 -32
8z"/>
<path d="M6038 1899 c-25 -14 -25 -90 0 -112 10 -10 25 -17 33 -18 8 0 32 -10
54 -22 34 -19 40 -27 41 -57 0 -29 4 -34 20 -32 21 4 31 17 40 50 8 28 -14 82
-32 82 -8 0 -22 4 -32 10 -9 5 -34 17 -54 26 -33 14 -38 21 -38 50 0 36 -5 39
-32 23z"/>
<path d="M631 1871 c-11 -7 -10 -10 5 -13 30 -6 84 3 78 13 -7 12 -65 11 -83
0z"/>
<path d="M1625 1870 c-4 -6 7 -11 24 -11 17 -1 36 -2 43 -3 6 -1 13 5 16 12 5
15 -74 17 -83 2z"/>
<path d="M1060 1835 c-36 -7 -85 -14 -110 -15 -25 0 -56 -7 -70 -15 -14 -8
-39 -14 -56 -15 -17 0 -37 -7 -44 -15 -7 -8 -20 -15 -30 -15 -16 0 -106 -43
-123 -59 -11 -11 -15 -669 -4 -711 5 -19 11 -47 14 -62 3 -15 11 -33 19 -39 8
-6 14 -19 14 -29 0 -22 141 -168 200 -206 25 -16 47 -32 50 -35 7 -9 86 -53
147 -83 28 -15 55 -31 58 -36 12 -19 60 -10 125 22 36 18 67 36 68 41 2 4 10
7 17 7 8 0 20 6 27 12 7 7 31 22 52 33 21 11 41 25 43 32 3 7 10 13 15 13 27
0 126 92 167 155 14 22 28 42 31 45 3 3 14 23 25 44 19 37 20 59 20 419 l0
379 -52 28 c-29 16 -66 31 -83 35 -16 4 -30 11 -30 16 0 5 -15 9 -32 9 -18 1
-44 7 -58 15 -14 8 -45 14 -70 15 -25 0 -61 4 -80 10 -61 17 -181 20 -250 5z
m288 -33 c45 -4 88 -14 94 -20 7 -7 24 -12 39 -12 15 0 30 -4 33 -9 3 -4 20
-11 38 -15 38 -7 93 -33 124 -59 l22 -19 -4 -366 c-3 -227 -8 -368 -14 -370
-6 -2 -10 -10 -10 -18 0 -30 -40 -86 -112 -157 -41 -41 -81 -77 -89 -80 -27
-13 -54 -32 -62 -44 -4 -7 -17 -13 -27 -13 -11 0 -20 -4 -20 -9 0 -4 -23 -19
-50 -32 -27 -13 -50 -27 -50 -31 0 -5 -9 -8 -19 -8 -11 0 -26 -7 -35 -15 -20
-20 -24 -20 -92 15 -32 16 -65 30 -71 30 -7 0 -13 4 -13 10 0 5 -11 12 -24 16
-13 3 -34 17 -47 30 -12 13 -31 24 -40 24 -10 0 -37 18 -61 40 -24 22 -50 42
-58 45 -19 7 -101 118 -123 165 -27 60 -29 96 -34 434 -4 297 -2 330 13 347
19 21 85 54 127 63 15 4 27 11 27 16 0 6 15 10 34 10 18 0 47 7 62 15 16 8 56
15 89 15 33 0 67 5 75 10 16 11 137 8 278 -8z"/>
<path d="M980 1744 c-25 -7 -59 -13 -77 -13 -17 -1 -35 -5 -38 -11 -3 -5 -14
-10 -23 -10 -9 0 -30 -7 -46 -15 -15 -8 -34 -15 -41 -15 -7 0 -24 -9 -39 -21
l-26 -20 0 -196 c0 -166 2 -199 16 -214 15 -17 14 -20 -6 -48 -32 -46 -3 -39
44 9 37 38 77 52 90 31 3 -5 -28 -44 -69 -86 -41 -43 -75 -81 -75 -85 0 -23
21 -7 108 81 93 95 130 117 147 89 7 -11 -51 -75 -172 -193 -69 -66 -92 -99
-58 -80 8 5 78 71 155 146 106 104 146 138 162 135 12 -2 23 -8 25 -15 2 -6
-66 -81 -152 -167 -86 -85 -154 -159 -151 -164 2 -4 86 72 185 170 99 98 186
178 194 178 8 0 20 7 27 15 10 13 51 15 251 15 153 0 239 4 239 10 0 6 -83 10
-229 10 -227 0 -230 0 -246 22 -29 43 -4 48 254 50 l236 2 -245 6 -245 5 0 30
0 30 238 3 c146 1 237 6 237 12 0 6 -89 10 -239 10 -242 0 -267 4 -241 35 10
12 54 15 246 15 201 0 234 2 234 15 0 13 -33 15 -234 15 -195 0 -236 2 -246
15 -10 12 -10 16 1 20 8 3 119 6 247 7 146 2 232 7 232 13 0 6 -86 11 -232 13
-203 2 -235 4 -245 19 -29 38 -3 43 231 44 133 0 213 4 201 9 -11 5 -113 9
-227 9 l-208 1 0 30 0 30 83 0 c45 0 89 5 97 10 23 15 -315 10 -370 -6z m42
-131 c28 -25 20 -67 -13 -71 -22 -3 -29 2 -38 29 -9 27 -14 30 -37 25 -45 -12
-63 -44 -64 -111 0 -51 4 -64 25 -88 29 -30 50 -35 59 -11 10 26 7 47 -11 66
-24 27 -5 40 53 36 l49 -3 -3 -55 c-5 -79 -19 -90 -109 -90 -42 0 -73 4 -73
10 0 6 -6 10 -13 10 -23 0 -67 81 -67 125 0 57 55 135 105 148 36 10 117 -2
137 -20z"/>
<path d="M986 1017 c-179 -177 -214 -215 -187 -205 13 4 318 305 323 318 1 5
14 11 28 12 40 5 39 -36 -2 -79 l-33 -35 30 4 c26 3 30 -1 33 -22 2 -20 -13
-41 -75 -102 -117 -115 -187 -178 -198 -178 -5 0 -3 -5 7 -10 13 -8 36 10 121
95 107 107 147 130 147 83 0 -16 -32 -54 -100 -121 -56 -54 -98 -102 -95 -107
3 -5 37 22 75 60 96 95 120 106 120 56 0 -13 -27 -47 -71 -88 -45 -43 -65 -68
-54 -68 9 0 35 18 57 41 44 44 61 46 66 7 2 -17 -4 -32 -20 -44 -13 -11 -27
-26 -30 -35 -5 -13 2 -16 39 -17 34 0 60 9 113 39 38 21 72 39 75 39 7 0 119
84 150 113 19 17 18 18 -30 13 -36 -4 -54 -11 -64 -25 -15 -23 -51 -27 -82
-11 -14 8 -19 21 -19 48 0 31 -27 102 -61 162 -32 55 -33 60 -12 88 11 15 31
28 45 30 15 2 30 13 37 28 6 13 22 29 37 34 34 13 121 13 129 -1 4 -5 -1 -26
-10 -45 -9 -20 -14 -43 -10 -51 7 -19 16 -11 42 37 28 50 72 52 87 4 5 -18 1
-24 -24 -33 -30 -10 -34 -31 -6 -31 7 0 21 -9 30 -19 16 -18 16 -20 -5 -40
-17 -16 -26 -18 -41 -10 -14 7 -23 7 -33 -1 -7 -6 -19 -10 -27 -9 -39 5 -54
-14 -18 -24 15 -4 20 -14 20 -36 0 -18 -5 -31 -12 -31 -7 0 -4 -6 7 -12 11 -6
26 -18 33 -27 12 -14 17 -12 47 24 34 39 48 64 79 137 16 36 23 189 10 222 -5
14 -36 16 -239 16 l-233 0 -196 -193z"/>
<path d="M1270 1015 c0 -27 1 -28 24 -19 24 9 20 44 -4 44 -15 0 -20 -7 -20
-25z"/>
<path d="M969 890 c-72 -72 -129 -133 -125 -137 3 -3 51 38 107 93 55 54 116
114 135 133 19 18 34 35 34 37 0 17 -36 -13 -151 -126z"/>
<path d="M1315 959 c-8 -35 -3 -44 20 -36 20 8 21 67 1 67 -8 0 -17 -14 -21
-31z"/>
<path d="M1381 832 c-8 -16 -6 -21 15 -31 34 -15 36 -15 32 16 -4 33 -32 42
-47 15z"/>
<path d="M300 1805 c0 -31 8 -49 33 -77 18 -21 39 -38 47 -38 20 1 92 52 98
69 6 18 -45 6 -70 -16 -26 -23 -51 -12 -59 26 -4 18 -16 43 -28 54 l-21 21 0
-39z"/>
<path d="M2007 1803 c-13 -21 -26 -46 -30 -55 -8 -22 -25 -23 -46 -4 -25 22
-61 30 -61 13 0 -21 64 -67 94 -67 21 0 86 93 86 124 0 37 -16 32 -43 -11z"/>
<path d="M638 1806 c-10 -7 -18 -20 -18 -29 0 -17 32 -13 65 10 11 7 30 13 42
13 13 0 23 5 23 10 0 15 -92 12 -112 -4z"/>
<path d="M1595 1810 c3 -5 17 -10 29 -10 13 0 29 -7 36 -15 14 -17 46 -20 55
-6 3 5 -2 17 -11 25 -17 18 -120 23 -109 6z"/>
<path d="M2760 1811 c0 -6 5 -13 10 -16 6 -3 10 -38 10 -77 l0 -70 27 7 c16 4
30 9 32 11 3 2 6 38 7 79 l2 75 -44 0 c-24 0 -44 -4 -44 -9z"/>
<path d="M3897 1770 c-34 -21 -56 -49 -57 -72 0 -21 55 -68 80 -68 30 0 33 18
5 42 -29 25 -31 44 -9 76 22 32 14 42 -19 22z"/>
<path d="M6014 1704 c-15 -6 -6 -41 12 -48 10 -4 14 3 14 24 0 30 -4 33 -26
24z"/>
<path d="M240 1641 c0 -23 11 -38 49 -70 l49 -41 38 26 c44 30 54 42 54 67 0
15 -7 13 -46 -14 l-45 -33 -40 47 c-22 26 -45 47 -50 47 -5 0 -9 -13 -9 -29z"/>
<path d="M2050 1630 c-29 -47 -58 -60 -76 -35 -15 21 -65 48 -73 40 -11 -12
29 -61 68 -82 l41 -21 33 31 c37 35 57 67 57 91 0 29 -26 17 -50 -24z"/>
<path d="M5898 1663 c7 -3 16 -2 19 1 4 3 -2 6 -13 5 -11 0 -14 -3 -6 -6z"/>
<path d="M5985 1562 c-36 -8 -105 -61 -105 -81 0 -5 -7 -22 -15 -37 -30 -58
-8 -172 42 -216 32 -28 95 -57 111 -50 13 5 14 6 1 10 -52 16 -89 92 -89 183
0 78 18 127 60 162 31 27 30 37 -5 29z"/>
<path d="M2551 1539 c7 -14 10 -77 7 -190 l-3 -169 48 0 c44 0 47 1 37 19 -15
29 -13 334 2 349 9 9 -1 12 -45 12 -56 0 -57 -1 -46 -21z"/>
<path d="M6130 1541 c5 -11 10 -28 10 -39 0 -16 18 -32 36 -32 2 0 4 15 4 33
0 37 -15 57 -42 57 -15 0 -17 -3 -8 -19z"/>
<path d="M4082 1531 c-25 -15 -35 -69 -33 -186 3 -114 10 -151 35 -167 16 -11
74 -10 81 2 3 6 0 10 -8 10 -8 0 -22 11 -31 25 -20 30 -23 185 -4 214 9 15 9
26 0 45 -6 14 -9 32 -6 40 6 15 -17 28 -34 17z"/>
<path d="M5558 1533 c-10 -3 -18 -14 -18 -26 0 -12 -7 -30 -15 -41 -10 -13
-11 -24 -5 -37 6 -10 10 -63 10 -118 0 -88 3 -104 20 -121 21 -21 65 -26 90
-10 13 8 13 10 -1 10 -37 0 -49 32 -49 134 0 53 5 107 11 118 8 14 8 23 0 31
-6 6 -11 21 -11 33 0 26 -8 32 -32 27z"/>
<path d="M377 1475 c-15 -14 -27 -30 -27 -35 0 -5 -9 -12 -20 -15 -15 -5 -29
3 -54 29 -44 47 -72 47 -60 0 4 -16 67 -64 107 -82 15 -7 107 98 107 123 0 13
-28 3 -53 -20z"/>
<path d="M1920 1481 c0 -11 21 -40 46 -66 43 -42 48 -45 64 -30 9 8 23 15 31
15 24 0 80 63 70 79 -12 19 -51 4 -83 -33 l-26 -31 -44 43 c-49 47 -58 51 -58
23z"/>
<path d="M2921 1456 c-9 -11 -5 -16 19 -26 l30 -12 0 -119 0 -119 38 0 38 0
-3 93 c-5 133 -17 171 -57 185 -42 15 -51 15 -65 -2z"/>
<path d="M4411 1457 c-13 -16 -5 -27 20 -27 26 0 31 -30 27 -148 l-3 -102 38
0 37 0 0 119 0 120 -33 25 c-37 29 -69 33 -86 13z"/>
<path d="M4591 1457 c-13 -16 -5 -27 19 -27 31 0 42 -47 34 -152 l-7 -98 37 0
36 0 0 93 c0 139 -6 163 -45 181 -40 20 -59 20 -74 3z"/>
<path d="M5290 1455 c-13 -15 -14 -14 35 -30 12 -4 15 -26 15 -125 l0 -120 38
0 37 0 -3 115 c-3 112 -4 115 -33 145 -33 33 -69 39 -89 15z"/>
<path d="M6441 1454 l-22 -16 25 -19 c30 -24 43 -24 55 0 8 13 7 22 -2 28 -26
21 -34 22 -56 7z"/>
<path d="M7430 1455 c0 -9 8 -18 18 -22 36 -13 52 -46 52 -111 0 -72 -18 -108
-65 -127 l-30 -13 29 -8 c71 -17 153 76 142 162 -7 53 -32 96 -69 117 -37 22
-77 22 -77 2z"/>
<path d="M2825 1455 c-5 -2 -23 -6 -39 -10 -22 -5 -26 -9 -17 -18 7 -7 11 -54
11 -129 l0 -118 34 0 34 0 4 128 c4 123 -1 154 -27 147z"/>
<path d="M4295 1451 c-25 -6 -29 -11 -27 -31 11 -75 12 -172 4 -204 l-10 -36
39 0 39 0 0 103 c0 56 3 111 6 122 8 31 -16 53 -51 46z"/>
<path d="M4970 1449 c0 -6 7 -18 16 -26 18 -18 11 -82 -9 -95 -7 -5 4 -5 23
-2 48 9 61 21 54 53 -9 41 -84 104 -84 70z"/>
<path d="M5195 1455 c-5 -2 -22 -6 -38 -9 -24 -6 -26 -9 -16 -28 7 -13 10 -61
7 -129 l-3 -109 36 0 37 0 4 128 c4 123 -1 154 -27 147z"/>
<path d="M6312 1448 c-32 -8 -32 -9 -16 -34 14 -20 16 -44 12 -129 l-5 -105
36 0 36 0 0 118 c0 141 -10 165 -63 150z"/>
<path d="M7315 1450 c-20 -4 -28 -11 -25 -21 3 -8 6 -95 8 -194 2 -99 7 -184
12 -189 5 -5 19 -6 32 -3 l23 6 -1 196 c-1 108 -5 200 -10 204 -5 4 -22 5 -39
1z"/>
<path d="M3120 1441 c0 -5 6 -22 14 -38 23 -44 46 -100 46 -110 0 -9 20 -57
39 -92 10 -21 31 -26 31 -8 0 8 7 20 15 27 19 16 19 49 0 56 -7 3 -21 27 -30
52 -9 26 -21 55 -26 64 -5 10 -9 27 -9 38 0 17 -7 20 -40 20 -22 0 -40 -4 -40
-9z"/>
<path d="M3335 1440 c-3 -5 1 -10 9 -10 9 0 16 5 16 10 0 6 -4 10 -9 10 -6 0
-13 -4 -16 -10z"/>
<path d="M3467 1429 c-50 -39 -61 -156 -19 -204 41 -47 115 -67 167 -45 17 7
15 9 -13 9 -18 1 -46 11 -62 23 -29 21 -55 82 -43 101 3 5 6 30 7 56 1 25 5
54 10 64 11 24 -14 22 -47 -4z"/>
<path d="M3605 1433 c15 -35 17 -61 6 -67 -6 -4 -11 -16 -11 -28 0 -14 5 -18
16 -14 9 3 24 6 35 6 11 0 21 9 25 25 8 32 -30 95 -58 95 -15 0 -18 -4 -13
-17z"/>
<path d="M3767 1432 c-10 -11 -17 -35 -17 -60 0 -38 3 -43 40 -62 21 -11 46
-20 54 -20 8 0 27 -11 41 -24 23 -22 25 -27 14 -48 -6 -13 -17 -26 -23 -30 -7
-5 -3 -8 8 -8 11 0 33 12 48 27 50 48 33 112 -35 128 -15 4 -30 11 -33 16 -3
5 -14 9 -24 9 -26 0 -57 47 -41 63 6 6 11 15 11 19 0 15 -27 8 -43 -10z"/>
<path d="M3910 1442 c0 -19 12 -42 22 -42 14 0 5 43 -9 48 -7 2 -13 -1 -13 -6z"/>
<path d="M4831 1413 c-27 -33 -31 -45 -31 -98 0 -53 4 -65 29 -92 36 -40 96
-59 148 -47 l38 8 -38 4 c-65 6 -131 94 -96 129 8 8 8 13 0 17 -16 10 -13 72
4 86 21 17 19 30 -4 30 -11 0 -33 -17 -50 -37z"/>
<path d="M6584 1428 c-33 -40 -44 -67 -44 -112 0 -53 23 -96 63 -119 44 -26
51 -21 28 19 -26 44 -30 168 -6 200 19 26 19 34 -3 34 -10 0 -27 -10 -38 -22z"/>
<path d="M6730 1440 c0 -6 7 -27 15 -47 8 -19 15 -52 15 -72 0 -42 -26 -122
-43 -133 -8 -5 -5 -8 7 -8 33 0 81 45 94 88 15 48 15 89 2 97 -5 3 -10 14 -10
23 0 19 -46 62 -67 62 -7 0 -13 -5 -13 -10z"/>
<path d="M6900 1443 c0 -5 4 -13 9 -18 5 -6 11 -57 13 -113 3 -95 5 -105 27
-123 25 -20 76 -26 86 -9 3 6 -8 22 -25 37 l-32 26 3 101 3 101 -42 3 c-23 2
-42 -1 -42 -5z"/>
<path d="M7108 1367 c2 -45 0 -98 -6 -118 -13 -48 0 -69 43 -69 l35 0 0 135 0
135 -38 0 -38 0 4 -83z"/>
<path d="M6105 1270 c0 -83 1 -90 20 -90 40 1 55 24 55 84 0 32 5 66 10 77 10
18 7 19 -37 19 l-48 0 0 -90z"/>
<path d="M190 1330 c-12 -7 -12 -10 -1 -10 7 0 22 -11 32 -24 11 -13 39 -34
64 -46 25 -12 45 -26 45 -31 0 -14 67 30 84 56 17 25 22 65 8 65 -17 0 -53
-33 -68 -61 l-15 -31 -49 46 c-49 46 -72 54 -100 36z"/>
<path d="M1900 1331 c0 -17 27 -61 50 -81 35 -31 57 -33 89 -11 16 12 33 21
37 21 14 0 64 53 64 68 0 11 -8 13 -30 9 -31 -7 -62 -32 -73 -60 -11 -29 -45
-20 -63 16 -9 17 -22 35 -28 39 -15 11 -46 10 -46 -1z"/>
<path d="M3747 1243 c-18 -17 10 -64 36 -62 9 0 8 2 0 6 -7 2 -13 12 -13 21 0
22 -15 44 -23 35z"/>
<path d="M403 1157 c-13 -18 -23 -40 -23 -48 0 -28 -13 -29 -45 -5 -26 20 -98
56 -111 56 -2 0 -4 -9 -4 -19 0 -25 36 -53 90 -71 23 -8 44 -19 47 -26 6 -16
56 27 83 72 42 67 7 106 -37 41z"/>
<path d="M1890 1155 c0 -26 9 -45 35 -74 l36 -39 62 25 c72 29 100 52 88 72
-12 18 -70 -1 -101 -34 -28 -29 -54 -20 -65 22 -7 29 -32 63 -47 63 -4 0 -8
-16 -8 -35z"/>
<path d="M470 1039 c0 -6 -7 -17 -15 -25 -8 -9 -15 -26 -15 -39 0 -57 -4 -58
-85 -24 -42 17 -85 14 -85 -6 0 -20 77 -53 130 -57 34 -2 45 3 65 26 24 28 43
105 30 125 -8 14 -25 14 -25 0z"/>
<path d="M1840 1004 c0 -25 6 -51 13 -59 6 -7 20 -24 30 -37 16 -23 21 -24 71
-17 55 7 90 21 114 46 8 8 12 17 8 20 -12 12 -76 3 -113 -15 -46 -23 -63 -19
-63 16 0 30 -34 92 -50 92 -5 0 -10 -21 -10 -46z"/>
<path d="M2744 1020 c-12 -5 -25 -13 -29 -19 -4 -7 -44 -11 -101 -11 l-94 0 0
-35 c0 -28 4 -35 20 -35 13 0 24 10 30 25 l10 25 173 0 c172 0 174 0 197 -25
33 -35 50 -32 50 10 l0 35 -90 0 c-78 0 -93 3 -107 20 -19 22 -27 23 -59 10z"/>
<path d="M3570 1005 c-9 -10 -32 -15 -76 -15 -44 0 -64 -4 -65 -12 -6 -112 -2
-228 8 -232 20 -8 24 9 22 95 -1 68 1 85 16 95 20 15 250 18 277 3 15 -8 18
-24 18 -98 0 -92 3 -103 26 -94 18 7 20 213 2 231 -7 7 -40 12 -79 12 -47 0
-70 4 -79 15 -7 8 -23 15 -35 15 -12 0 -28 -7 -35 -15z"/>
<path d="M4317 997 c-8 -13 -33 -41 -54 -63 -42 -43 -46 -74 -8 -74 28 0 35
-16 35 -86 0 -45 3 -54 18 -54 10 0 23 5 29 11 17 17 94 7 107 -14 18 -28 -9
-37 -116 -37 -81 0 -98 -3 -98 -15 0 -13 12 -15 60 -13 32 1 62 -1 65 -4 13
-12 -16 -48 -43 -54 -45 -10 -93 -35 -87 -45 11 -17 60 -9 119 21 32 17 69 30
82 30 21 0 24 -5 24 -34 0 -40 14 -53 36 -35 10 8 13 21 9 41 -10 41 13 44 78
9 61 -33 121 -48 131 -33 8 13 -37 42 -66 42 -30 0 -44 10 -52 38 -8 24 -10
23 73 26 25 0 46 6 48 14 4 9 -21 12 -100 12 -97 0 -106 2 -112 20 -11 35 3
40 106 40 59 0 99 4 99 10 0 10 -38 14 -100 11 -43 -3 -97 16 -84 29 5 5 36
10 69 12 76 4 74 21 -2 28 -45 4 -57 8 -55 20 7 29 25 40 71 41 46 2 46 2 -11
8 -69 7 -94 25 -56 40 14 5 44 7 66 4 22 -3 52 -3 67 1 46 12 16 26 -54 26
-61 0 -70 3 -87 25 -10 14 -27 25 -37 25 -9 0 -22 -11 -27 -25 -7 -19 -17 -25
-40 -25 -23 0 -33 6 -40 25 -12 32 -43 32 -63 2z m140 -61 c3 -3 3 -12 -1 -21
-9 -23 -109 -17 -114 7 -2 11 5 18 20 21 27 5 88 1 95 -7z m-8 -68 c5 -13 6
-27 1 -31 -11 -12 -103 -4 -107 9 -7 20 27 44 63 44 27 0 37 -5 43 -22z m11
-82 c0 -20 -34 -29 -80 -21 -25 4 -40 12 -40 21 0 10 15 14 60 14 45 0 60 -3
60 -14z"/>
<path d="M5090 760 c0 -264 -3 -253 63 -225 52 22 282 21 337 -1 72 -29 71
-33 68 228 l-3 233 -232 3 -233 2 0 -240z m399 191 c18 -18 19 -33 16 -182 -2
-147 -5 -165 -21 -175 -35 -23 -297 -23 -328 -1 -17 12 -19 32 -20 177 -2 213
-14 200 184 200 134 0 152 -2 169 -19z"/>
<path d="M5342 895 c-11 -23 -17 -25 -77 -25 -37 0 -65 -4 -65 -10 0 -5 -1
-13 -2 -17 -2 -5 22 -10 52 -13 47 -4 55 -8 53 -25 -1 -11 -14 -29 -29 -40
-60 -44 -84 -70 -76 -83 7 -10 15 -9 40 5 18 10 32 21 32 26 0 4 5 7 11 7 6 0
17 7 26 15 12 13 18 13 30 4 19 -16 9 -58 -18 -81 -18 -15 -19 -19 -6 -24 8
-3 28 -4 44 -2 28 3 28 3 33 92 5 91 8 96 54 110 14 5 16 9 7 20 -7 8 -22 17
-35 20 -13 3 -26 15 -29 26 -7 28 -31 25 -45 -5z"/>
<path d="M2638 932 c-18 -2 -28 -11 -32 -28 -4 -14 -4 -29 -1 -34 4 -6 37 -10
75 -10 l70 0 -6 30 c-5 23 -3 30 9 30 21 0 32 -19 18 -33 -20 -20 -12 -27 29
-27 39 0 39 1 34 30 -6 27 -4 30 20 30 31 0 37 -33 9 -50 -15 -8 -11 -10 17
-8 39 3 49 22 27 51 -11 16 -30 19 -127 20 -63 1 -127 1 -142 -1z m49 -27 c1
-5 -1 -16 -5 -23 -12 -18 -42 -4 -42 20 0 14 6 19 22 16 12 -2 23 -7 25 -13z"/>
<path d="M3607 913 c-4 -3 -7 -14 -7 -24 0 -31 -21 -32 -51 -3 l-29 28 0 -32
c0 -19 -5 -32 -12 -32 -7 0 -2 -9 11 -19 23 -18 23 -19 6 -45 -21 -32 -13 -46
13 -23 21 19 53 22 69 6 8 -8 13 -5 18 10 8 28 23 26 51 -5 19 -20 25 -22 30
-10 3 8 1 24 -5 35 -9 16 -8 22 6 30 15 8 16 12 6 22 -7 7 -13 24 -13 37 l0
25 -25 -27 c-13 -14 -27 -26 -30 -26 -3 0 -12 14 -19 30 -7 17 -15 27 -19 23z"/>
<path d="M543 902 c-7 -5 -16 -30 -19 -58 -4 -27 -11 -55 -17 -61 -11 -15 -53
-17 -62 -3 -3 6 -26 10 -51 10 -36 0 -44 -3 -44 -19 0 -25 38 -36 120 -36 63
0 65 1 82 35 11 20 18 56 18 87 0 53 -4 60 -27 45z"/>
<path d="M1777 895 c-13 -31 -7 -78 14 -119 l20 -41 62 0 c80 1 117 12 117 36
0 15 -7 19 -37 19 -20 0 -52 -5 -70 -12 -41 -15 -53 -5 -60 49 -3 22 -13 50
-23 62 -15 21 -18 22 -23 6z"/>
<path d="M2522 804 c3 -15 28 -17 238 -17 208 1 235 3 238 17 3 14 -21 16
-238 16 -219 0 -241 -2 -238 -16z"/>
<path d="M629 773 c-8 -9 -14 -39 -14 -70 0 -63 -13 -76 -65 -68 -21 4 -49 0
-69 -8 l-34 -15 26 -17 c18 -12 37 -15 59 -12 134 24 122 18 131 67 8 48 1
126 -12 135 -5 2 -15 -3 -22 -12z"/>
<path d="M1687 772 c-22 -24 -22 -98 -2 -139 11 -23 25 -32 50 -37 19 -3 50
-9 69 -12 33 -6 76 8 76 25 0 16 -52 31 -88 26 -50 -7 -76 13 -70 56 3 17 0
47 -7 65 -11 33 -12 34 -28 16z"/>
<path d="M2587 733 c-16 -16 -5 -40 25 -54 17 -8 34 -20 36 -26 5 -17 -39 -33
-90 -33 -32 0 -39 -3 -34 -16 3 -9 6 -18 6 -20 0 -9 37 -3 47 7 6 6 21 9 34 7
19 -2 23 -8 21 -28 -5 -44 3 -50 45 -34 21 7 55 13 76 14 27 0 37 4 37 16 0
13 -7 15 -34 10 -42 -8 -66 1 -66 25 0 17 45 49 69 49 5 0 22 -14 38 -30 37
-40 101 -71 152 -73 44 -2 62 16 21 21 -14 2 -29 7 -33 12 -14 13 3 50 23 50
10 0 22 5 25 10 3 6 -1 10 -9 10 -24 0 -47 31 -44 59 3 24 0 26 -32 26 -32 0
-35 -2 -32 -28 l4 -28 -114 3 -113 3 3 28 c2 24 -1 27 -26 27 -16 0 -32 -3
-35 -7z m329 -68 c4 -8 1 -22 -6 -30 -14 -17 -76 -20 -85 -5 -10 16 13 38 43
43 15 2 31 5 35 6 4 0 10 -6 13 -14z"/>
<path d="M3560 704 c-16 -9 -51 -13 -102 -11 -51 1 -79 -2 -82 -10 -8 -19 5
-23 85 -23 43 0 81 -4 84 -10 18 -30 -37 -61 -147 -84 -21 -5 -25 -10 -21 -27
4 -15 12 -19 27 -16 83 19 126 33 126 39 0 5 6 8 14 8 8 0 26 14 41 31 24 29
28 31 51 19 13 -7 24 -19 24 -27 0 -7 5 -13 12 -13 6 0 19 -6 27 -13 9 -7 42
-21 74 -32 56 -18 58 -18 72 1 16 22 17 21 -77 49 -58 17 -95 46 -83 64 3 6
40 11 85 11 73 0 105 10 80 25 -5 3 -52 8 -104 10 -52 2 -104 9 -115 14 -25
14 -39 13 -71 -5z"/>
<path d="M651 553 c-10 -8 -52 -12 -113 -13 -54 0 -98 -3 -98 -7 0 -5 7 -17
15 -27 23 -30 18 -55 -14 -73 -16 -10 -34 -25 -39 -34 -10 -15 -3 -19 61 -30
111 -19 147 -16 174 15 13 15 23 40 23 57 0 16 7 41 16 54 14 21 24 25 65 25
49 0 60 9 37 28 -20 15 -108 19 -127 5z m-43 -59 c33 -23 29 -58 -10 -77 -30
-14 -34 -14 -60 4 -29 21 -29 38 0 72 19 21 41 22 70 1z"/>
<path d="M1620 563 c-80 -8 -97 -43 -20 -43 49 0 50 -1 69 -42 11 -24 21 -56
23 -73 5 -47 53 -58 165 -39 48 9 89 17 90 18 3 2 -6 11 -55 56 -25 23 -23 50
6 83 14 16 9 17 -90 17 -82 0 -108 3 -118 15 -7 8 -15 14 -19 13 -3 -1 -26 -3
-51 -5z m180 -68 c34 -17 39 -44 13 -68 -24 -20 -42 -23 -75 -9 -35 14 -38 53
-5 75 28 20 32 20 67 2z"/>
<path d="M790 470 c0 -5 4 -10 9 -10 6 0 13 5 16 10 3 6 -1 10 -9 10 -9 0 -16
-4 -16 -10z"/>
<path d="M1530 470 c0 -5 5 -10 10 -10 6 0 10 5 10 10 0 6 -4 10 -10 10 -5 0
-10 -4 -10 -10z"/>
<path d="M707 443 c-4 -3 -7 -20 -7 -36 0 -16 -7 -44 -16 -63 -9 -19 -14 -40
-11 -47 10 -26 122 -62 227 -71 36 -4 66 -11 68 -16 5 -13 399 -13 404 0 2 5
41 14 88 18 47 5 96 14 107 21 12 6 31 11 42 11 11 0 29 9 39 21 17 17 18 26
10 62 -5 23 -13 46 -19 51 -5 6 -9 20 -9 33 0 27 -8 28 -47 9 -15 -8 -50 -20
-78 -26 -66 -16 -479 -24 -575 -11 -101 13 -172 29 -184 41 -12 12 -30 13 -39
3z m133 -104 c0 -27 17 -23 24 5 5 22 10 23 53 19 27 -3 55 -12 64 -20 11 -9
29 -12 55 -7 l39 6 0 -41 c0 -43 -17 -55 -43 -29 -8 8 -15 8 -26 -1 -19 -16
-54 5 -63 37 -6 26 -22 25 -37 -4 -15 -27 -29 -35 -40 -24 -6 6 -22 10 -36 10
-41 0 -70 74 -32 82 23 6 42 -10 42 -33z m650 16 c22 26 56 18 71 -16 11 -28
10 -33 -5 -45 -21 -15 -44 -9 -48 14 -3 14 -8 12 -30 -11 -23 -25 -29 -26 -52
-16 -22 10 -29 9 -46 -6 -16 -14 -23 -15 -34 -6 -11 10 -21 9 -45 -4 -17 -8
-32 -14 -32 -13 -6 13 -5 89 1 93 5 3 20 1 34 -5 19 -7 32 -6 46 2 14 9 22 9
35 -2 14 -11 19 -10 38 8 19 19 23 20 38 7 14 -14 18 -14 29 0z m-312 -53 c3
-41 2 -42 -27 -42 -29 0 -31 2 -31 39 0 29 5 41 18 44 30 8 37 1 40 -41z"/>
</g>
</svg>
