<?xml version="1.0" standalone="no"?>
<!DOCTYPE svg PUBLIC "-//W3C//DTD SVG 20010904//EN"
 "http://www.w3.org/TR/2001/REC-SVG-20010904/DTD/svg10.dtd">
<svg version="1.0" xmlns="http://www.w3.org/2000/svg"
 width="225.000000pt" height="225.000000pt" viewBox="0 0 225.000000 225.000000"
 preserveAspectRatio="xMidYMid meet">

<g transform="translate(0.000000,225.000000) scale(0.100000,-0.100000)"
fill="#000000" stroke="none">
<path d="M432 1983 c-43 -21 -79 -64 -92 -111 -10 -38 -15 -622 -4 -622 3 0
76 72 163 160 117 118 165 160 182 160 35 0 359 -325 359 -360 0 -19 -38 -63
-155 -180 l-155 -155 0 -312 0 -313 175 0 176 0 -2 532 -1 532 -157 158 c-86
87 -158 168 -159 179 -3 17 35 60 162 185 l165 164 -312 0 c-267 0 -317 -3
-345 -17z"/>
<path d="M1318 1837 c123 -123 162 -168 162 -187 0 -19 -38 -63 -155 -180
l-155 -155 0 -532 0 -533 170 0 170 0 1 303 c1 166 1 309 -1 317 -1 8 -71 84
-156 168 -101 101 -154 160 -154 174 0 31 330 358 361 358 17 0 68 -44 186
-162 l163 -163 0 312 c0 329 -2 344 -48 391 -48 49 -70 52 -399 52 l-308 0
163 -163z"/>
<path d="M330 795 c0 -233 4 -405 10 -427 11 -39 75 -104 112 -113 13 -3 59
-5 103 -3 l80 3 0 310 0 310 -152 155 -153 155 0 -390z"/>
<path d="M1758 1023 l-148 -148 0 -313 0 -312 84 0 c119 0 161 21 200 97 14
29 16 79 14 428 l-3 395 -147 -147z"/>
</g>
</svg>
