<?xml version="1.0" standalone="no"?>
<!DOCTYPE svg PUBLIC "-//W3C//DTD SVG 20010904//EN"
 "http://www.w3.org/TR/2001/REC-SVG-20010904/DTD/svg10.dtd">
<svg version="1.0" xmlns="http://www.w3.org/2000/svg"
 width="445.000000pt" height="218.000000pt" viewBox="0 0 445.000000 218.000000"
 preserveAspectRatio="xMidYMid meet">

<g transform="translate(0.000000,218.000000) scale(0.100000,-0.100000)"
fill="#000000" stroke="none">
<path d="M237 2013 c-4 -3 -7 -82 -7 -174 0 -143 2 -168 16 -173 27 -10 34 3
34 63 0 31 5 62 12 69 7 7 38 12 71 12 69 0 91 10 112 50 27 53 10 138 -30
154 -22 8 -200 8 -208 -1z m175 -50 c10 -9 18 -29 18 -45 0 -41 -32 -68 -79
-68 -65 0 -71 6 -71 64 0 29 3 56 7 59 14 14 106 7 125 -10z"/>
<path d="M1425 2010 c-8 -13 3 -30 20 -30 14 0 27 24 18 34 -10 9 -31 7 -38
-4z"/>
<path d="M1802 2003 c4 -20 18 -26 37 -14 18 12 5 31 -20 31 -14 0 -19 -6 -17
-17z"/>
<path d="M2686 1990 c-19 -17 -40 -47 -47 -67 -15 -48 -6 -154 17 -194 37 -62
128 -87 198 -54 41 20 86 93 65 106 -23 14 -37 10 -44 -11 -4 -12 -25 -33 -47
-47 l-40 -27 -35 20 c-39 20 -72 79 -73 126 0 41 29 105 55 122 39 25 79 20
113 -15 18 -18 38 -29 49 -27 26 5 18 37 -18 71 -26 24 -37 27 -94 27 -57 0
-68 -3 -99 -30z"/>
<path d="M3562 2003 c5 -26 38 -29 38 -4 0 15 -6 21 -21 21 -14 0 -19 -5 -17
-17z"/>
<path d="M4117 2013 c-4 -3 -7 -79 -7 -168 0 -132 3 -165 15 -175 12 -10 18
-10 30 0 12 10 15 42 15 165 0 85 -3 160 -6 169 -6 16 -35 22 -47 9z"/>
<path d="M3702 1998 c-7 -7 -12 -22 -12 -34 0 -12 -7 -27 -15 -34 -8 -7 -15
-18 -15 -25 0 -7 7 -18 15 -25 11 -9 15 -35 15 -106 0 -84 2 -94 21 -104 11
-6 30 -10 42 -8 29 4 34 34 8 43 -19 6 -21 14 -21 83 0 67 3 80 22 96 l22 19
-21 17 c-12 10 -23 32 -25 50 -3 37 -17 47 -36 28z"/>
<path d="M602 1923 l-43 -4 3 -127 c3 -119 4 -127 23 -127 18 0 20 8 25 91 5
95 17 124 52 124 16 0 37 25 27 34 -9 8 -47 12 -87 9z"/>
<path d="M798 1923 c-60 -9 -102 -105 -78 -177 45 -136 230 -103 230 41 0 100
-56 150 -152 136z m71 -62 c14 -12 25 -36 28 -60 5 -33 1 -44 -20 -65 -33 -33
-60 -33 -86 0 -29 36 -27 85 4 118 29 31 44 33 74 7z"/>
<path d="M1107 1923 c-3 -3 -25 -6 -49 -7 l-43 -1 -3 -115 c-2 -119 4 -147 32
-137 13 5 16 22 16 79 0 102 39 165 78 126 7 -7 12 -44 12 -98 0 -84 8 -110
36 -110 8 0 13 29 16 90 3 77 6 93 26 112 18 18 26 20 40 12 14 -9 18 -29 20
-102 3 -93 15 -121 47 -108 12 4 15 25 15 108 0 126 -13 151 -78 151 -23 0
-48 -6 -57 -13 -10 -8 -19 -9 -27 -3 -16 13 -74 24 -81 16z"/>
<path d="M1594 1923 c-28 -5 -51 -31 -59 -65 -8 -33 27 -74 72 -83 71 -16 86
-31 57 -59 -22 -22 -38 -20 -73 10 -37 31 -66 26 -55 -8 13 -43 61 -64 121
-55 42 7 69 31 78 67 9 39 -24 74 -90 94 -57 19 -63 24 -43 44 17 17 43 15 58
-3 14 -17 51 -16 57 1 11 33 -65 68 -123 57z"/>
<path d="M1940 1922 c-6 -2 -10 -54 -10 -128 0 -105 3 -126 16 -131 25 -9 34
16 34 103 0 66 3 84 18 97 24 22 45 21 65 -1 12 -13 17 -42 19 -107 3 -82 5
-90 23 -90 19 0 20 7 20 112 0 140 -4 145 -104 147 -39 0 -76 0 -81 -2z"/>
<path d="M2270 1923 c-28 -6 -44 -23 -65 -72 -19 -42 -19 -72 -1 -115 24 -58
50 -76 106 -76 28 0 50 -3 50 -7 0 -14 -14 -30 -35 -40 -21 -11 -65 -1 -65 16
0 13 -27 22 -45 15 -22 -9 -18 -32 10 -59 35 -36 111 -35 154 1 l31 26 0 154
0 154 -44 0 c-24 0 -50 2 -58 4 -7 2 -24 1 -38 -1z m60 -53 c11 -6 25 -28 31
-49 10 -34 9 -44 -7 -72 -30 -51 -49 -58 -79 -28 -35 35 -41 85 -16 127 22 33
39 39 71 22z"/>
<path d="M3043 1919 c-50 -15 -70 -70 -25 -69 9 0 26 7 36 15 28 21 63 19 76
-5 9 -17 7 -20 -17 -25 -16 -3 -45 -11 -65 -17 -64 -19 -87 -82 -49 -129 18
-22 27 -24 110 -25 l91 0 -1 90 c-1 136 -13 162 -79 170 -25 3 -60 1 -77 -5z
m94 -156 c7 -19 -39 -54 -67 -51 -35 4 -36 49 0 59 34 10 63 6 67 -8z"/>
<path d="M3330 1921 l-55 -6 0 -175 c0 -168 1 -175 20 -175 17 0 21 8 25 50
l5 50 51 0 c58 0 80 14 101 62 18 43 17 98 -3 139 -26 55 -50 64 -144 55z m87
-63 c35 -33 32 -96 -7 -133 -30 -28 -30 -28 -52 -9 -34 28 -38 36 -38 75 0 40
32 89 58 89 8 0 26 -10 39 -22z"/>
<path d="M3888 1923 c-28 -4 -63 -47 -53 -63 9 -15 41 -12 55 5 16 20 64 19
81 -1 10 -13 10 -17 -2 -25 -8 -5 -23 -9 -35 -9 -94 -1 -152 -99 -88 -149 22
-17 38 -20 107 -17 82 3 82 3 81 29 0 15 -1 64 -2 110 -1 48 -7 90 -14 99 -14
17 -84 29 -130 21z m87 -153 c9 -15 -10 -44 -39 -60 -23 -12 -28 -11 -46 5
-14 13 -17 22 -10 36 13 24 83 38 95 19z"/>
<path d="M1420 1795 c0 -106 3 -127 16 -132 28 -10 34 18 32 137 -3 111 -4
115 -25 118 -23 3 -23 2 -23 -123z"/>
<path d="M1799 1908 c-3 -76 4 -235 11 -242 6 -6 15 -4 25 4 13 11 15 33 13
129 -3 112 -4 116 -25 119 -14 2 -23 -2 -24 -10z"/>
<path d="M3562 1793 c3 -106 6 -128 18 -128 12 0 15 22 18 128 2 122 2 127
-18 127 -20 0 -20 -5 -18 -127z"/>
<path d="M2693 1492 c-7 -4 -19 -27 -27 -50 -18 -51 -83 -163 -125 -216 -17
-21 -31 -45 -31 -52 0 -32 38 -9 121 73 96 94 118 99 92 23 -20 -59 -61 -118
-110 -156 -49 -40 -141 -87 -153 -79 -23 14 -5 128 25 165 7 8 29 47 50 85 21
39 44 79 51 90 38 54 -2 60 -51 8 l-34 -38 -1 36 c0 44 -20 64 -83 80 -36 10
-50 10 -59 1 -9 -9 -8 -16 4 -29 9 -10 23 -33 33 -52 9 -19 31 -47 48 -62 l30
-28 -37 -37 c-32 -32 -40 -35 -70 -30 -46 9 -52 -5 -20 -43 21 -26 25 -38 20
-64 -24 -112 -22 -117 49 -127 l40 -5 3 -142 c3 -157 4 -158 62 -128 l30 16 0
117 c0 79 4 122 12 130 13 13 56 16 82 6 22 -8 21 -72 -3 -162 -37 -141 -80
-185 -243 -249 -27 -10 -48 -24 -48 -32 0 -9 7 -11 23 -6 12 4 54 13 92 21 78
16 156 53 196 94 28 29 65 118 78 187 5 24 14 50 22 59 14 17 10 22 -50 64
l-22 15 23 7 c13 3 44 6 70 7 71 2 78 -10 78 -140 0 -107 0 -109 23 -109 12 0
33 7 45 16 20 14 22 23 22 110 0 87 2 98 23 115 12 10 28 18 36 19 7 0 26 11
43 25 16 14 40 25 53 25 13 0 27 4 30 10 7 11 -7 17 -95 45 -103 33 -190 110
-190 169 0 13 -7 26 -15 30 -34 13 -12 26 45 26 66 0 74 -10 45 -60 -8 -14
-14 -31 -15 -37 0 -27 35 -11 86 37 29 28 62 50 73 50 30 0 26 22 -12 58 -38
37 -55 39 -89 13 -24 -19 -56 -24 -160 -22 -64 1 -71 11 -37 48 19 19 20 25 9
38 -11 14 -62 45 -72 45 -2 0 -8 -4 -15 -8z m155 -352 l41 -60 -26 -30 c-24
-30 -26 -30 -125 -30 -115 0 -120 7 -48 62 25 19 58 53 75 75 16 23 33 42 37
42 3 1 24 -26 46 -59z"/>
<path d="M362 1458 c-6 -18 -14 -53 -18 -78 -14 -92 -105 -298 -182 -413 -35
-52 -42 -71 -33 -80 9 -9 27 5 79 61 37 39 71 72 75 72 4 0 7 -106 7 -235 0
-262 0 -262 65 -231 30 14 34 22 37 59 l3 42 289 5 c227 4 290 8 294 18 5 16
-82 102 -103 102 -15 0 -21 -6 -56 -53 l-21 -27 -201 2 -202 3 -2 250 -1 250
41 99 c23 54 47 101 54 103 25 10 13 32 -30 58 -59 34 -80 33 -95 -7z"/>
<path d="M3755 1459 c-2 -8 -6 -50 -7 -94 l-3 -80 -168 -3 c-128 -2 -168 -5
-164 -15 2 -8 41 -13 128 -15 68 -1 127 -6 132 -11 12 -12 -22 -135 -60 -220
-47 -102 -135 -234 -200 -299 -28 -27 -29 -42 -5 -42 10 0 45 27 79 60 l62 61
98 -3 98 -3 5 -115 c5 -114 5 -115 30 -118 51 -6 63 16 61 114 -3 127 -5 124
98 124 84 0 88 -1 116 -30 35 -36 42 -37 85 -5 19 14 45 25 58 25 34 0 23 21
-25 48 -81 45 -147 121 -202 233 -28 57 -52 120 -54 139 l-2 35 140 3 c77 1
143 6 148 11 8 8 -85 101 -103 101 -6 0 -28 -18 -47 -40 -36 -40 -37 -40 -109
-40 -40 0 -79 3 -88 6 -19 7 -22 90 -4 129 14 32 5 42 -49 51 -32 5 -44 3 -48
-7z m134 -359 c7 -30 24 -87 38 -126 l25 -71 -38 -37 c-40 -39 -59 -45 -68
-20 -3 9 -6 91 -6 182 0 162 1 166 18 147 10 -11 24 -45 31 -75z m-141 -156
l-3 -109 -68 -3 c-51 -2 -69 1 -73 11 -3 8 15 43 39 78 24 35 54 83 67 107 13
23 28 38 32 34 5 -5 7 -58 6 -118z"/>
<path d="M1505 1436 c-17 -25 -20 -26 -127 -26 -99 0 -109 -2 -106 -17 3 -16
18 -18 116 -21 l113 -3 -3 -82 -3 -82 -49 -3 c-28 -2 -65 3 -87 12 l-39 16
-12 -27 c-6 -16 -13 -64 -16 -108 -2 -44 -11 -92 -18 -106 -12 -24 -11 -29 7
-44 22 -20 81 -25 87 -7 2 7 25 12 58 12 l54 0 0 -57 c0 -89 -18 -186 -38
-201 -10 -7 -30 -11 -47 -8 -105 18 -128 19 -123 5 2 -7 22 -23 44 -34 21 -11
50 -37 63 -58 13 -20 31 -37 38 -37 27 0 101 51 124 85 13 19 27 35 30 35 3 0
14 -16 25 -35 20 -38 45 -45 79 -21 11 7 43 18 70 24 28 5 76 16 108 23 70 15
79 9 87 -59 4 -40 9 -48 28 -50 44 -6 62 23 62 99 0 62 -5 77 -50 166 -60 117
-124 198 -135 170 -5 -11 4 -48 23 -95 16 -42 33 -96 37 -119 6 -40 5 -44 -20
-53 -30 -12 -165 -14 -165 -2 0 6 72 303 131 537 11 44 29 93 41 109 27 37 16
56 -42 75 -67 22 -73 13 -87 -125 -7 -65 -17 -135 -22 -154 -6 -19 -18 -69
-26 -110 -34 -170 -72 -301 -95 -325 -24 -26 -45 -32 -55 -16 -10 17 17 205
33 223 21 25 8 61 -27 76 -34 15 -66 9 -75 -13 -4 -11 -21 -15 -60 -15 -30 0
-57 4 -60 8 -2 4 0 42 6 85 l11 77 54 0 c50 0 53 -2 53 -24 0 -35 13 -39 57
-19 l38 18 3 110 c1 60 7 114 12 119 26 26 -9 78 -62 91 -21 6 -30 2 -43 -19z"/>
<path d="M767 1332 c-10 -10 -17 -23 -17 -29 0 -5 -9 -18 -19 -27 -17 -15 -37
-17 -145 -14 -115 3 -126 1 -126 -14 0 -17 17 -18 213 -18 116 0 218 4 226 9
18 11 3 39 -44 80 -41 35 -65 39 -88 13z"/>
<path d="M2740 711 c0 -5 26 -24 58 -42 52 -30 148 -101 163 -122 4 -5 17 -7
30 -5 22 3 24 8 24 52 0 41 -4 52 -26 69 -47 34 -249 73 -249 48z"/>
<path d="M1574 437 c-2 -7 -3 -65 -2 -128 2 -93 6 -114 18 -114 11 0 16 16 20
65 5 61 6 65 30 65 23 0 25 -4 28 -55 6 -101 42 -105 42 -4 0 74 -20 104 -70
104 -25 0 -30 4 -30 24 0 47 -23 75 -36 43z"/>
<path d="M3526 443 c-3 -4 -6 -21 -6 -40 0 -31 -2 -33 -33 -33 -20 0 -41 -8
-51 -19 -39 -43 -27 -145 19 -157 12 -3 39 -4 61 -2 l39 3 3 121 c2 98 0 123
-12 127 -8 3 -17 3 -20 0z m-17 -127 c17 -20 10 -77 -11 -89 -24 -16 -48 8
-48 47 0 49 34 73 59 42z"/>
<path d="M3802 441 c-9 -6 -12 -38 -10 -127 2 -98 6 -119 18 -119 11 0 16 14
18 55 3 59 14 80 43 80 20 0 27 -19 31 -90 2 -25 8 -45 13 -45 13 0 18 135 6
154 -5 8 -26 17 -47 20 -34 5 -39 10 -42 36 -4 36 -13 47 -30 36z"/>
<path d="M1783 425 c-7 -20 2 -29 21 -22 9 4 13 13 10 22 -8 19 -23 19 -31 0z"/>
<path d="M2236 421 c-14 -15 -16 -29 -11 -59 5 -30 1 -47 -15 -75 -20 -34 -20
-37 -4 -62 20 -31 56 -41 105 -28 23 6 44 6 54 1 9 -6 24 -7 32 -3 15 5 14 8
-4 27 -18 17 -19 25 -11 50 7 20 7 33 0 40 -13 13 -32 2 -32 -18 0 -21 -28
-17 -35 6 -4 13 1 31 14 49 26 36 26 53 3 74 -25 23 -75 21 -96 -2z m63 -20
c17 -11 7 -41 -13 -41 -19 0 -29 17 -22 35 6 17 15 18 35 6z m-8 -142 c8 -16
8 -24 0 -32 -16 -16 -45 3 -49 32 -5 29 33 29 49 0z"/>
<path d="M2905 431 c-8 -15 3 -31 21 -31 9 0 14 7 12 17 -4 20 -24 28 -33 14z"/>
<path d="M4004 429 c-8 -14 11 -33 25 -25 11 7 4 36 -9 36 -5 0 -12 -5 -16
-11z"/>
<path d="M170 309 c0 -92 3 -120 13 -117 6 3 13 13 15 24 8 57 13 64 38 64 14
0 36 11 49 25 53 52 13 125 -70 125 l-45 0 0 -121z m85 78 c23 -17 14 -62 -14
-70 -25 -6 -41 10 -41 43 0 42 20 52 55 27z"/>
<path d="M2584 417 c-2 -7 -3 -60 -2 -118 3 -107 19 -141 28 -59 5 42 7 45 39
50 48 7 53 30 7 30 -30 0 -37 4 -42 25 -9 36 2 55 30 55 13 0 32 3 41 6 13 5
14 8 3 15 -21 14 -98 11 -104 -4z"/>
<path d="M706 378 c-11 -21 -13 -35 -6 -42 5 -5 10 -32 10 -59 0 -64 13 -87
50 -87 35 0 40 19 10 38 -29 18 -28 85 1 106 l22 15 -31 30 c-17 17 -33 31
-35 31 -3 0 -13 -14 -21 -32z"/>
<path d="M388 363 c-10 -2 -18 -11 -18 -19 0 -11 8 -13 33 -9 24 5 37 2 46 -9
11 -13 10 -17 -5 -22 -87 -28 -106 -50 -79 -90 14 -22 22 -25 68 -22 l52 3 3
69 c4 94 -22 120 -100 99z m65 -107 c12 -29 -31 -47 -52 -22 -10 11 -8 17 6
25 25 14 40 13 46 -3z"/>
<path d="M587 363 l-28 -4 3 -82 c2 -65 6 -82 18 -82 11 0 16 14 18 57 2 47 7
61 28 77 25 20 25 43 1 40 -7 -1 -25 -4 -40 -6z"/>
<path d="M885 361 l-30 -6 0 -80 c0 -64 3 -80 15 -80 11 0 16 15 20 59 9 109
70 99 70 -12 0 -38 4 -52 13 -50 8 3 13 30 15 75 4 98 -13 113 -103 94z"/>
<path d="M1088 360 c-23 -14 -41 -74 -33 -109 10 -44 36 -63 86 -59 58 4 63
26 7 30 -35 2 -43 7 -43 23 0 16 8 21 45 25 40 4 45 8 48 32 6 51 -61 86 -110
58z m60 -32 c19 -19 14 -28 -18 -28 -16 0 -30 4 -30 8 0 9 21 32 30 32 3 0 11
-5 18 -12z"/>
<path d="M1290 361 c-24 -7 -25 -10 -25 -86 0 -64 3 -80 15 -80 11 0 16 14 18
58 3 53 6 60 32 75 49 28 21 51 -40 33z"/>
<path d="M1421 351 c-12 -12 -21 -26 -21 -31 0 -14 46 -60 60 -60 5 0 10 -9
10 -20 0 -16 -7 -20 -36 -20 -48 0 -40 -24 10 -28 46 -4 66 11 66 50 0 22 -8
33 -35 50 -40 23 -41 43 -4 43 34 0 31 29 -3 33 -17 2 -34 -4 -47 -17z"/>
<path d="M1922 363 l-33 -4 3 -112 c2 -90 6 -112 18 -112 8 0 17 11 20 25 5
19 14 26 44 31 21 3 42 12 47 20 15 24 11 126 -7 143 -15 16 -27 17 -92 9z
m68 -54 c14 -25 4 -75 -17 -83 -23 -9 -43 13 -43 48 0 53 39 75 60 35z"/>
<path d="M2780 361 c-23 -6 -25 -11 -28 -83 -2 -63 0 -77 14 -82 23 -9 27 -2
26 36 -3 58 8 89 35 99 50 19 9 46 -47 30z"/>
<path d="M3026 345 c-35 -38 -36 -102 -3 -133 23 -22 68 -29 101 -16 29 11 17
24 -23 24 -40 0 -72 23 -55 40 5 5 29 10 54 12 40 3 45 6 47 28 4 35 -19 60
-60 67 -30 5 -40 1 -61 -22z m73 -18 c14 -17 4 -27 -25 -27 -30 0 -39 16 -17
29 24 14 29 13 42 -2z"/>
<path d="M3242 363 l-33 -4 3 -82 c2 -65 6 -82 18 -82 11 0 16 15 18 62 2 52
6 63 23 68 31 10 43 -9 49 -73 7 -77 24 -68 28 15 3 60 0 70 -19 85 -11 10
-29 17 -38 16 -9 0 -31 -3 -49 -5z"/>
<path d="M3641 351 c-12 -12 -21 -26 -21 -31 0 -14 46 -60 60 -60 5 0 10 -9
10 -20 0 -16 -7 -20 -36 -20 -24 0 -34 -4 -31 -12 2 -8 21 -13 48 -13 36 0 45
4 56 24 15 31 3 55 -38 76 -36 19 -34 39 5 43 34 4 29 26 -7 30 -16 2 -34 -5
-46 -17z"/>
<path d="M4005 358 c-3 -8 -5 -48 -3 -89 2 -58 6 -74 18 -74 22 0 27 147 6
165 -13 10 -17 10 -21 -2z"/>
<path d="M4143 363 l-33 -4 0 -115 c0 -92 3 -114 14 -114 9 0 16 12 18 28 3
23 8 27 39 30 52 4 74 32 74 94 0 40 -5 53 -24 69 -13 10 -31 18 -40 17 -9 0
-31 -3 -48 -5z m72 -61 c7 -35 -9 -82 -29 -82 -22 0 -39 28 -38 62 1 53 56 69
67 20z"/>
<path d="M1782 278 c2 -54 7 -83 16 -86 9 -3 12 18 12 82 0 71 -3 86 -15 86
-13 0 -15 -14 -13 -82z"/>
<path d="M2907 353 c-4 -3 -7 -39 -7 -79 0 -52 4 -73 14 -77 23 -9 26 2 26 85
0 58 -3 78 -13 78 -8 0 -17 -3 -20 -7z"/>
</g>
</svg>
