<?xml version="1.0" standalone="no"?>
<!DOCTYPE svg PUBLIC "-//W3C//DTD SVG 20010904//EN"
 "http://www.w3.org/TR/2001/REC-SVG-20010904/DTD/svg10.dtd">
<svg version="1.0" xmlns="http://www.w3.org/2000/svg"
 width="350.000000pt" height="358.000000pt" viewBox="0 0 350.000000 358.000000"
 preserveAspectRatio="xMidYMid meet">

<g transform="translate(0.000000,358.000000) scale(0.100000,-0.100000)"
fill="#000000" stroke="none">
<path d="M350 2175 l0 -1405 1415 0 1415 0 0 1405 0 1405 -1415 0 -1415 0 0
-1405z m1780 10 c0 -195 -3 -355 -8 -355 -4 0 -84 77 -177 170 -150 150 -171
168 -175 148 -6 -22 -10 -23 -128 -26 l-122 -3 0 -64 0 -64 108 -3 107 -3 3
-27 3 -27 -108 -3 -108 -3 -3 -103 -3 -103 -32 3 -32 3 -3 228 -2 227 150 0
c82 0 150 3 150 8 0 4 -74 81 -165 172 -91 91 -165 168 -165 172 0 5 160 8
355 8 l355 0 0 -355z m-1009 -105 c35 -55 66 -100 69 -100 3 0 33 45 68 100
63 99 64 100 103 100 29 0 38 -3 33 -12 -4 -7 -45 -68 -91 -135 l-83 -122 0
-95 0 -96 -30 0 -30 0 0 91 c0 50 -5 100 -12 112 -6 12 -47 73 -90 135 -43 62
-78 115 -78 118 0 2 17 4 39 4 38 0 40 -1 102 -100z m149 -461 c59 -13 107
-49 127 -96 16 -40 11 -53 -22 -53 -16 0 -29 11 -44 35 -21 36 -71 65 -113 65
-42 0 -105 -39 -123 -75 -40 -85 -27 -195 30 -252 30 -30 39 -33 92 -33 69 0
98 17 119 67 12 29 19 34 42 31 23 -2 27 -7 25 -31 -3 -38 -38 -84 -83 -107
-47 -24 -145 -27 -193 -6 -152 65 -168 346 -25 431 27 16 59 25 110 34 4 0 30
-4 58 -10z m339 -122 c22 -27 141 -331 132 -340 -21 -21 -46 -1 -65 51 l-19
52 -68 0 -69 0 -25 -55 c-18 -41 -29 -55 -44 -55 -12 0 -21 6 -21 13 0 21 123
332 134 339 17 11 32 9 45 -5z m393 -7 c62 -29 65 -142 5 -180 -12 -7 -54 -15
-94 -18 l-72 -5 -3 -66 c-3 -60 -5 -66 -25 -69 l-23 -3 0 174 c0 95 3 177 8
181 10 12 173 0 204 -14z m156 -164 l2 -177 -22 3 c-23 3 -23 5 -26 172 -2
169 2 192 33 183 6 -2 11 -74 13 -181z m330 157 c3 -22 0 -23 -52 -23 l-55 0
-3 -152 c-3 -145 -4 -153 -23 -153 -19 0 -20 8 -25 150 l-5 150 -57 3 c-49 3
-58 6 -58 22 0 10 6 21 13 24 6 2 68 4 137 3 121 -2 125 -3 128 -24z m170 14
c22 -26 140 -332 132 -340 -19 -20 -45 0 -65 51 l-20 52 -70 0 -70 0 -20 -53
c-15 -39 -26 -53 -42 -55 -15 -2 -23 2 -23 11 0 23 122 331 134 339 16 11 32
9 44 -5z m220 1 c8 -8 12 -57 12 -155 l0 -143 81 0 c78 0 80 -1 77 -22 -3 -22
-7 -23 -108 -23 l-105 0 -3 169 c-2 129 1 171 10 178 17 10 22 10 36 -4z"/>
<path d="M1558 1380 c-14 -36 -23 -68 -21 -72 2 -5 25 -8 50 -8 44 0 45 1 40
28 -3 15 -14 47 -25 72 l-19 44 -25 -64z"/>
<path d="M1840 1401 l0 -61 58 0 c66 0 102 19 102 54 0 44 -23 60 -94 64 l-66
4 0 -61z"/>
<path d="M2626 1429 c-3 -8 -14 -39 -26 -69 -11 -30 -20 -56 -20 -57 0 -2 25
-3 55 -3 l54 0 -25 68 c-29 76 -32 80 -38 61z"/>
<path d="M1395 520 c-4 -11 -22 -40 -40 -65 -23 -29 -31 -47 -23 -51 6 -4 19
3 30 15 20 26 41 23 58 -9 10 -18 7 -22 -24 -35 -20 -8 -40 -15 -45 -15 -5 0
-12 -4 -16 -9 -12 -20 12 -18 63 3 l53 23 60 -21 c52 -18 61 -19 69 -6 8 12 1
16 -33 22 -71 13 -72 14 -33 61 20 24 36 47 36 51 0 3 -32 6 -70 6 -66 0 -70
1 -61 19 10 18 6 31 -10 31 -4 0 -11 -9 -14 -20z m105 -62 c0 -15 -30 -48 -43
-48 -13 0 -57 40 -57 52 0 4 23 8 50 8 32 0 50 -4 50 -12z"/>
<path d="M2030 515 c0 -23 -4 -25 -45 -25 -35 0 -45 -4 -45 -16 0 -13 7 -15
33 -10 51 9 58 -1 55 -85 l-3 -74 -47 2 c-36 1 -48 -2 -48 -13 0 -11 15 -14
62 -14 l61 0 -24 -26 c-13 -14 -41 -35 -62 -45 -21 -11 -35 -24 -32 -29 12
-20 35 -9 93 45 58 53 61 55 117 55 56 0 59 -2 117 -55 33 -31 65 -54 71 -52
24 8 14 24 -35 52 -71 41 -72 53 -4 57 31 2 55 7 54 13 -2 6 -14 9 -27 7 -14
-2 -35 -1 -48 3 -22 5 -23 10 -23 85 l0 80 45 0 c25 0 45 5 45 10 0 6 -20 10
-45 10 -41 0 -45 2 -45 25 0 16 -6 25 -15 25 -9 0 -15 -9 -15 -25 0 -25 -1
-25 -80 -25 -79 0 -80 0 -80 25 0 16 -6 25 -15 25 -9 0 -15 -9 -15 -25z m188
-67 c-3 -22 -8 -23 -75 -22 -78 0 -89 4 -80 29 5 12 23 15 82 15 73 0 76 -1
73 -22z m2 -58 c0 -18 -7 -20 -80 -20 -60 0 -80 3 -80 13 0 23 11 27 87 27 66
0 73 -2 73 -20z m-2 -62 c-3 -21 -9 -23 -68 -26 -71 -2 -96 7 -87 32 5 13 22
16 82 16 73 0 76 -1 73 -22z"/>
<path d="M1210 504 c-6 -14 -10 -27 -10 -30 0 -3 -11 -22 -25 -42 -27 -39 -31
-52 -16 -52 6 0 18 14 28 30 15 27 23 30 65 30 26 0 48 5 48 10 0 6 -16 10
-35 10 -28 0 -35 4 -35 19 0 11 5 23 10 26 15 9 12 25 -5 25 -9 0 -20 -12 -25
-26z"/>
<path d="M2872 506 c-17 -39 -80 -104 -123 -128 -22 -12 -39 -25 -39 -29 0
-18 21 -19 46 -2 20 13 29 14 32 5 2 -7 23 -12 53 -12 l49 0 0 -35 0 -35 -65
0 c-51 0 -65 -3 -65 -15 0 -12 14 -15 66 -15 l65 0 -3 -52 -3 -53 -82 1 c-64
1 -83 -2 -83 -12 0 -11 37 -14 190 -14 159 0 190 2 190 15 0 11 -10 13 -50 8
-44 -5 -50 -4 -50 12 0 10 7 26 16 36 15 17 12 39 -5 39 -4 0 -17 -21 -29 -46
-31 -63 -56 -58 -60 14 l-3 52 70 0 c56 0 71 3 71 15 0 12 -14 15 -70 15 l-70
0 0 35 0 35 55 0 c41 0 55 4 55 14 0 13 5 13 35 0 20 -8 40 -12 45 -9 22 14 7
33 -35 45 -50 14 -131 79 -146 117 -11 30 -43 30 -57 -1z m48 -25 c0 -6 23
-33 51 -60 l52 -51 -112 0 c-61 0 -111 3 -111 6 0 3 13 17 30 30 16 14 38 39
47 55 16 28 43 40 43 20z"/>
<path d="M450 484 c0 -11 5 -14 16 -10 9 3 76 6 150 6 83 0 134 4 134 10 0 6
-57 10 -150 10 -131 0 -150 -2 -150 -16z"/>
<path d="M1190 371 c0 -5 7 -11 15 -15 9 -3 15 -18 15 -36 0 -27 -3 -30 -30
-30 -38 0 -40 -18 -2 -22 25 -3 27 -6 30 -56 2 -30 -1 -59 -7 -66 -5 -6 -7
-17 -3 -23 9 -14 91 44 92 65 0 17 -15 15 -30 -3 -22 -26 -30 -16 -30 35 0 47
2 50 25 50 14 0 25 5 25 10 0 6 -11 10 -25 10 -22 0 -25 4 -25 35 0 31 3 35
25 35 14 0 25 5 25 10 0 6 -22 10 -50 10 -27 0 -50 -4 -50 -9z"/>
<path d="M390 360 c0 -6 77 -10 210 -10 133 0 210 4 210 10 0 6 -77 10 -210
10 -133 0 -210 -4 -210 -10z"/>
<path d="M1440 325 c0 -11 -12 -15 -50 -15 -64 0 -66 -18 -3 -22 36 -2 49 -7
51 -20 3 -15 -4 -18 -42 -18 -58 0 -61 -18 -3 -22 34 -2 42 -7 42 -23 0 -17
-7 -20 -53 -20 -35 0 -52 -4 -52 -12 0 -9 18 -13 55 -13 54 0 55 0 55 -30 0
-20 5 -30 15 -30 11 0 15 8 13 28 -3 26 -2 27 55 30 72 4 75 22 3 22 -34 0
-56 5 -58 13 -10 26 4 37 48 37 28 0 43 4 39 10 -3 6 -24 10 -46 10 -32 0 -39
3 -39 20 0 17 7 20 50 20 28 0 50 5 50 10 0 6 -22 10 -50 10 -38 0 -50 4 -50
15 0 8 -7 15 -15 15 -8 0 -15 -7 -15 -15z"/>
<path d="M532 265 c-24 -35 -56 -72 -72 -82 -29 -17 -38 -37 -22 -46 4 -3 69
0 145 5 125 10 139 9 157 -7 12 -11 24 -14 33 -8 12 6 5 21 -37 75 -37 47 -56
64 -66 58 -10 -6 -8 -15 13 -40 15 -17 27 -35 27 -39 0 -9 -106 -21 -177 -21
-24 0 -43 3 -43 7 0 3 27 39 60 79 47 57 56 73 44 78 -9 3 -17 6 -18 6 -1 0
-21 -29 -44 -65z"/>
<path d="M2137 253 c-4 -3 -7 -15 -7 -25 0 -14 -8 -18 -40 -18 -22 0 -40 -4
-40 -10 0 -5 18 -10 40 -10 38 0 40 -1 40 -31 l0 -31 -75 3 c-45 3 -75 0 -75
-6 0 -6 65 -11 170 -13 146 -2 170 0 170 13 0 12 -14 14 -77 12 l-78 -2 -3 28
c-3 26 -1 27 37 27 23 0 41 5 41 10 0 6 -18 10 -40 10 -36 0 -40 3 -40 25 0
24 -10 32 -23 18z"/>
<path d="M2796 212 c-8 -14 14 -52 31 -52 18 0 16 14 -5 41 -13 14 -21 18 -26
11z"/>
</g>
</svg>
